<?xml version='1.0' encoding='UTF-8' standalone='no'?>
<!-- Created with Fritzing (http://www.fritzing.org/) -->
<svg xmlns:svg='http://www.w3.org/2000/svg' xmlns='http://www.w3.org/2000/svg' version='1.2' baseProfile='tiny' x='0in' y='0in' width='2.20741in' height='3.53893in' viewBox='0 0 158.934 254.803' >
<g partID='195790'><g transform='translate(96.547,104.329)' ><g  id="breadboard">
 <g  id="icon">
  <path  stroke="none" fill="#1F7A34" d="M0,0L0,33.84A2.16,2.16,0,0,1,0,38.16L0,72L53.56,72L53.56,0L0,0z" stroke-width="0"/>
  <g transform="matrix(1, 0, 0, 1, 7.2, 13.36)">
   <g >
    <g >
     <path  fill="#4D4D4D" d="M0.851998,4.304l0,38.615l1.599,0l0,1.707l16.733,0l0.116,-1.096l0.526,0l0.116,1.096l16.754,0l0,-1.707l1.598,0L38.294,4.304L0.851998,4.304zM13.28,40.401c-0.056,0.307,-0.396,0.555,-0.795002,0.555L8.03398,40.956c-0.397,0,-0.760003,-0.254,-0.798998,-0.555L4.429,19.716c-0.051,-0.305,0.256,-0.557,0.646,-0.557L5.73,19.159c0.396,0,0.757001,0.254,0.799999,0.557L8.64403,37.1c0.033,0.31,0.373,0.558,0.793001,0.558l1.652,0c0.383,0,0.760003,-0.252,0.796997,-0.558l2.104,-17.385c0.047,-0.303,0.373,-0.555,0.796997,-0.555l0.646,-0.002c0.394,0,0.693,0.254,0.654,0.555L13.28,40.401zM31.914,40.401c-0.055,0.307,-0.396,0.555,-0.796997,0.555l-4.449,0c-0.396,0,-0.760003,-0.254,-0.801,-0.555L23.06,19.716c-0.049,-0.305,0.258,-0.557,0.646,-0.557l0.654,0c0.396,0,0.756,0.254,0.796997,0.557L27.275,37.1c0.031,0.31,0.371,0.558,0.793001,0.558l1.65,0c0.383,0,0.760003,-0.252,0.796997,-0.558l2.105,-17.385c0.049,-0.303,0.373,-0.555,0.795002,-0.555l0.646,-0.002c0.395,0,0.693,0.254,0.654,0.555L31.914,40.401z"/>
     <rect  height="33.438" x="3.487" y="7.65598" width="32.188" fill="#808080"/>
     <rect  height="1.75" x="3.487" y="41.094" width="32.188" fill="#F2F2F2"/>
     <path  fill="#B0B0B0" d="M36.875,38.214l1,0c0,0.535,0.1,0.885002,0.27,0.997999c0.066,0.031,0.627,0.107,1.016,0.107l0,0.674l0,0.326l0,3.307l0,0.154l0,0.846c-0.605,0,-1.316,-0.111,-1.563,-0.271c-0.664,-0.445,-0.715,-1.341,-0.721001,-1.738l-0.002,-0.002l0,-4l0.02,0.011C36.877,38.452,36.875,38.305,36.875,38.214z"/>
     <path  fill="#8F8F8F" d="M38.027,39.073c-0.1,-0.172,-0.15,-0.465,-0.15,-0.860998l-1,0l0,4.305c0,0.281,0.00799999,1.035,0.43,1.564c0.125,0.145,0.189,0.313,0.813002,0.449C38.017,44.354,38.027,39.073,38.027,39.073z"/>
     <path  fill="#B0B0B0" d="M2.283,38.214l-1,0c0,0.535,-0.101,0.885002,-0.271,0.997999C0.947002,39.243,0.385,39.319,0,39.319l0,0.674l0,0.326l0,3.307l0,0.154l0,0.846c0.604,0,1.318,-0.111,1.56,-0.271c0.665,-0.445,0.719,-1.341,0.723002,-1.738l0.001,-0.002l0,-4l-0.02,0.011C2.282,38.452,2.283,38.305,2.283,38.214z"/>
     <path  fill="#8F8F8F" d="M1.044,44.526c0.619,-0.135,0.688,-0.309,0.812002,-0.451c0.425,-0.521,0.431,-1.275,0.431,-1.559l0,-4.305l-1,0c0,0.396,-0.058,0.688,-0.149,0.857002C1.133,39.073,1.139,44.354,1.044,44.526z"/>
     <path  fill="#B3B3B3" d="M0.851998,-0.001l0,38.613l1.599,0l0,1.707l34.25,0l0,-1.707l1.596,0L38.297,-0.001L0.851998,-0.001zM13.28,36.096c-0.056,0.306,-0.396,0.554,-0.795002,0.554L8.03398,36.65c-0.397,0,-0.760003,-0.252,-0.798998,-0.554L4.429,15.41c-0.051,-0.304,0.256,-0.556,0.646,-0.556L5.73,14.854c0.396,0,0.757001,0.253,0.799999,0.556l2.114,17.386c0.033,0.313,0.373,0.561,0.793001,0.561l1.652,0c0.383,0,0.760003,-0.256,0.796997,-0.561l2.104,-17.385c0.047,-0.304,0.373,-0.555,0.796997,-0.555l0.646,-0.002c0.394,0,0.693,0.253,0.654,0.555L13.28,36.096zM31.914,36.096c-0.055,0.306,-0.396,0.554,-0.796997,0.554l-4.449,0c-0.396,0,-0.760003,-0.252,-0.801,-0.554L23.06,15.41c-0.049,-0.304,0.258,-0.556,0.646,-0.556l0.654,0c0.396,0,0.756,0.253,0.796997,0.556l2.117,17.386c0.031,0.313,0.371,0.561,0.793001,0.561l1.65,0c0.383,0,0.760003,-0.256,0.796997,-0.561l2.105,-17.385c0.049,-0.304,0.373,-0.555,0.795002,-0.555l0.646,-0.002c0.395,0,0.693,0.253,0.654,0.555L31.914,36.096z"/>
     <polygon  points="8.69998,33.339,11.81,33.339,11.995,31.708,8.53798,31.708" fill="none"/>
     <polygon  points="11.995,31.708,11.81,33.339,8.69998,33.339,8.53798,31.708" fill="#939393"/>
     <polygon  points="11.995,31.708,12.079,31.024,8.442,31.024,8.53798,31.708" fill="#666666"/>
     <polygon  points="27.332,33.339,30.443,33.339,30.625,31.708,27.17,31.708" fill="none"/>
     <polygon  points="30.625,31.708,30.443,33.339,27.332,33.339,27.17,31.708" fill="#939393"/>
     <polygon  points="30.625,31.708,30.709,31.024,27.074,31.024,27.17,31.708" fill="#666666"/>
     <line  stroke="#FFFFFF" x1="1.42" stroke-opacity="0.24" stroke-linecap="round" x2="1.42" y1="1.064" fill="none" stroke-width="0.8064" y2="37.905"/>
     <line  stroke="#FFFFFF" x1="37.726" stroke-opacity="0.24" stroke-linecap="round" x2="37.726" y1="1.064" fill="none" stroke-width="0.8064" y2="38.055"/>
     <line  stroke="#000000" x1="36.478" stroke-opacity="0.15" stroke-linecap="round" x2="2.668" y1="39.188" fill="none" stroke-width="0.4032" y2="39.188"/>
     <rect  height="0.65" x="2.449" y="39.669" width="34.25" fill="#B0B0B0"/>
     <polygon  points="19.184,44.626,2.449,44.626,2.449,45.28,19.116,45.28" fill="#B0B0B0"/>
     <polygon  points="19.945,44.626,20.013,45.28,36.699,45.28,36.699,44.626" fill="#B0B0B0"/>
    </g>
   </g>
  </g>
 </g>
 <g transform="matrix(1, 0, 0, 1, 22.0306, 67.2516)">
  <g >
   <rect  height="2.2968" x="0" y="0" id="connector2pin" width="2.29896" fill="#8D8C8C"/>
   <rect  height="1.18189" x="0.56099" y="0.556952" width="1.18398" fill="#8C8663"/>
   <polygon  points="0,2.2968,0.56099,1.73785,0.56099,0.501957,0,0" fill="#B8AF82"/>
   <polygon  points="1.74297,0.558951,0.56899,0.558951,0,0,2.29896,0" fill="#80795B"/>
   <polygon  points="1.74297,1.73785,1.74297,0.558951,2.29896,0,2.29896,2.2968" fill="#5E5B43"/>
   <polygon  points="0,2.2968,0.56699,1.73785,1.74297,1.73785,2.29896,2.2968" fill="#9A916C"/>
  </g>
 </g>
 <g transform="matrix(1, 0, 0, 1, 22.0306, 2.4516)">
  <g >
   <rect  height="2.2968" x="0" y="0" id="connector5pin" width="2.29896" fill="#8D8C8C"/>
   <rect  height="1.18189" x="0.56099" y="0.556952" width="1.18398" fill="#8C8663"/>
   <polygon  points="0,2.2968,0.56099,1.73785,0.56099,0.501957,0,0" fill="#B8AF82"/>
   <polygon  points="1.74297,0.558951,0.56899,0.558951,0,0,2.29896,0" fill="#80795B"/>
   <polygon  points="1.74297,1.73785,1.74297,0.558951,2.29896,0,2.29896,2.2968" fill="#5E5B43"/>
   <polygon  points="0,2.2968,0.56699,1.73785,1.74297,1.73785,2.29896,2.2968" fill="#9A916C"/>
  </g>
 </g>
 <g transform="matrix(1, 0, 0, 1, 29.2306, 67.2516)">
  <g >
   <rect  height="2.2968" x="0" y="0" id="connector3pin" width="2.29896" fill="#8D8C8C"/>
   <rect  height="1.18189" x="0.56099" y="0.556952" width="1.18398" fill="#8C8663"/>
   <polygon  points="0,2.2968,0.56099,1.73785,0.56099,0.501957,0,0" fill="#B8AF82"/>
   <polygon  points="1.74297,0.558951,0.56899,0.558951,0,0,2.29896,0" fill="#80795B"/>
   <polygon  points="1.74297,1.73785,1.74297,0.558951,2.29896,0,2.29896,2.2968" fill="#5E5B43"/>
   <polygon  points="0,2.2968,0.56699,1.73785,1.74297,1.73785,2.29896,2.2968" fill="#9A916C"/>
  </g>
 </g>
 <g transform="matrix(1, 0, 0, 1, 29.2306, 2.4516)">
  <g >
   <rect  height="2.2968" x="0" y="0" id="connector4pin" width="2.29896" fill="#8D8C8C"/>
   <rect  height="1.18189" x="0.56099" y="0.556952" width="1.18398" fill="#8C8663"/>
   <polygon  points="0,2.2968,0.56099,1.73785,0.56099,0.501957,0,0" fill="#B8AF82"/>
   <polygon  points="1.74297,0.558951,0.56899,0.558951,0,0,2.29896,0" fill="#80795B"/>
   <polygon  points="1.74297,1.73785,1.74297,0.558951,2.29896,0,2.29896,2.2968" fill="#5E5B43"/>
   <polygon  points="0,2.2968,0.56699,1.73785,1.74297,1.73785,2.29896,2.2968" fill="#9A916C"/>
  </g>
 </g>
</g>
</g></g><path stroke='#8c8c8c' stroke-width='2.16' stroke-linecap='round' stroke-linejoin='round' fill='none' d='M69.327,165.529L69.327,172.729' />
<path stroke='#8c8c8c' stroke-width='2.16' stroke-linecap='round' stroke-linejoin='round' fill='none' d='M83.7241,165.529L83.7241,172.729' />
<path stroke='#8c8c8c' stroke-width='2.16' stroke-linecap='round' stroke-linejoin='round' fill='none' d='M76.5256,165.529L76.5256,172.729' />
<g partID='195810'><g transform='translate(62.8463,120.66)' ><g xmlns="http://www.w3.org/2000/svg" id="breadboard">
 <rect xmlns="http://www.w3.org/2000/svg" height="0.72" x="5.40072" id="connector0pin" y="43.2" width="2.16" fill="none"/>
 <rect xmlns="http://www.w3.org/2000/svg" height="0.72" x="12.5993" id="connector1pin" y="43.2" width="2.16" fill="none"/>
 <rect xmlns="http://www.w3.org/2000/svg" height="0.72" x="19.7978" id="connector2pin" y="43.2" width="2.16" fill="none"/>
 <g xmlns="http://www.w3.org/2000/svg" x1="9.001" stroke="#8C8C8C" id="connector0leg" stroke-linecap="round" x2="9.001" y1="62.317" fill="none" y2="72.317" stroke-width="2.16"/>
 <g xmlns="http://www.w3.org/2000/svg" x1="18.999" stroke="#8C8C8C" id="connector1leg" stroke-linecap="round" x2="18.999" y1="62.317" fill="none" y2="72.317" stroke-width="2.16"/>
 <g xmlns="http://www.w3.org/2000/svg" x1="28.997" stroke="#8C8C8C" id="connector2leg" stroke-linecap="round" x2="28.997" y1="62.317" fill="none" y2="72.317" stroke-width="2.16"/>
 <path xmlns="http://www.w3.org/2000/svg" fill="#BFBCBC" d="M24.4778,0.36L13.6793,0.36l0,1.80144c3.13488,0,5.67,1.77912,5.67,3.97224c-0.00144,2.19168,-2.53656,3.96936,-5.67,3.96936l0,5.82264l10.7986,0L24.4778,0.36z"/>
 <path xmlns="http://www.w3.org/2000/svg" fill="#808080" d="M8.01072,6.13008C8.01072,3.93624,10.5473,2.16,13.6793,2.16L13.6793,0.35928L2.88072,0.35928L2.88072,15.9192l10.7986,0l0,-5.82192C10.5473,10.0987,8.01072,8.32248,8.01072,6.13008z"/>
 <rect xmlns="http://www.w3.org/2000/svg" height="11.3666" x="5.40072" id="rect4" y="33.5016" width="2.16" fill="#8C8C8C"/>
 <rect xmlns="http://www.w3.org/2000/svg" height="11.3666" x="12.5993" id="rect6" y="33.5016" width="2.16" fill="#8C8C8C"/>
 <rect xmlns="http://www.w3.org/2000/svg" height="11.3666" x="19.7978" id="rect8" y="33.5016" width="2.16" fill="#8C8C8C"/>
 <polygon xmlns="http://www.w3.org/2000/svg" id="polygon10" points="0.36072,3.258,0.36072,12.8628,2.88072,12.8628,2.88072,0.36" fill="#CCCCCC"/>
 <polygon xmlns="http://www.w3.org/2000/svg" id="polygon12" points="26.9978,3.258,24.4778,0.36,24.4778,12.8628,26.9978,12.8628" fill="#999999"/>
 <polygon xmlns="http://www.w3.org/2000/svg" id="polygon21" points="9.00072,40.806,7.38792,41.526,5.57352,41.526,3.96072,40.806,3.96072,32.0364,9.00072,32.0364" fill="#8C8C8C"/>
 <polygon xmlns="http://www.w3.org/2000/svg" id="polygon23" points="16.1993,40.806,14.5865,41.526,12.7728,41.526,11.1593,40.806,11.1593,32.0364,16.1993,32.0364" fill="#8C8C8C"/>
 <polygon xmlns="http://www.w3.org/2000/svg" id="polygon25" points="23.3978,40.806,21.785,41.526,19.9721,41.526,18.3593,40.806,18.3593,32.0364,23.3978,32.0364" fill="#8C8C8C"/>
 <rect xmlns="http://www.w3.org/2000/svg" height="15.9998" x="18.3593" y="22.6958" width="8.64" fill="#141414"/>
 <rect xmlns="http://www.w3.org/2000/svg" height="15.9998" x="0.36072" y="22.6958" width="8.64" fill="#333333"/>
 <path xmlns="http://www.w3.org/2000/svg" id="path40_1_" fill="#262626" d="M0.36072,28.5545l0,5.16672c2.0376,0,3.69,-1.15488,3.69,-2.58336C4.05072,29.7115,2.39832,28.5545,0.36072,28.5545z"/>
 <path xmlns="http://www.w3.org/2000/svg" id="path47" d="M26.9978,28.5545c-2.0376,0,-3.69,1.15488,-3.69,2.58336c0,1.42488,1.6524,2.58336,3.69,2.58336L26.9978,28.5545z"/>
 <path xmlns="http://www.w3.org/2000/svg" fill="#1A1A1A" d="M0.36072,22.6958l0,7.11936c2.0376,0,3.69,1.15632,3.69,2.58336c0,1.42704,-1.6524,2.58336,-3.69,2.58336l0,3.71376l26.6386,0L26.9993,22.6958L0.36072,22.6958zM26.9978,34.9812c-2.0376,0,-3.69,-1.15488,-3.69,-2.58336c0,-1.42488,1.6524,-2.58336,3.69,-2.58336L26.9978,34.9812z"/>
 <rect xmlns="http://www.w3.org/2000/svg" height="3.34728" x="0.36072" id="rect49" y="19.3478" width="26.6386"/>
 <rect xmlns="http://www.w3.org/2000/svg" height="4.13856" x="0.36072" id="rect51" y="15.2093" width="26.6386" fill="#333333"/>
 <rect xmlns="http://www.w3.org/2000/svg" height="3.06" x="2.88072" id="rect53" y="0.36" width="21.5986" fill="#B2B2B2"/>
 <path xmlns="http://www.w3.org/2000/svg" id="path55" fill="#8C8C8C" d="M24.4778,2.70648L2.88072,2.70648l-2.52,2.89728l0,9.6048l26.6371,0L26.9978,5.60376L24.4778,2.70648zM13.6793,12.4459c-3.132,0,-5.66856,-1.77696,-5.66856,-3.96936c0,-2.19168,2.53656,-3.96792,5.66856,-3.96792c3.13488,0,5.67,1.77696,5.67,3.96792C19.3478,10.6682,16.8127,12.4459,13.6793,12.4459z"/>
 <g xmlns="http://www.w3.org/2000/svg" id="g47">
  <path xmlns="http://www.w3.org/2000/svg" id="path49" fill="#663300" d="M8.27928,24.3259l0,1.08l-0.54,0l0,1.08l-0.54,0l0,0.54l-1.08,0l0,-0.54l-0.54,0l0,-1.08l-0.54,0l0,-1.08l1.08,0l0,1.08l1.08,0l0,-1.08L8.27928,24.3259z"/>
  <path xmlns="http://www.w3.org/2000/svg" id="path51" fill="#663300" d="M13.6793,24.8659l0.54,0l0,1.08l-0.54,0l0,0.54l0.54,0l0,0.54l-1.62,0l0,-0.54l-0.54,0l0,0.54l-1.08,0l0,-2.7l2.7,0L13.6793,24.8659L13.6793,24.8659zM13.1393,24.8659l-1.08,0l0,1.08l1.08,0L13.1393,24.8659z"/>
  <path xmlns="http://www.w3.org/2000/svg" id="path53" fill="#663300" d="M17.9993,24.3259l0,0.54l-2.16,0l0,0.54l1.62,0l0,0.54l-1.62,0l0,0.54l2.16,0l0,0.54l-3.24,0l0,-2.7L17.9993,24.3259z"/>
  <path xmlns="http://www.w3.org/2000/svg" id="path56" fill="#663300" d="M19.0793,26.4859l-0.54,0l0,-1.62l0.54,0l0,-0.54l2.7,0l0,0.54l-2.16,0l0,1.62l1.08,0l0,-0.54l-0.54,0l0,-0.54l1.62,0l0,1.62l-2.7,0L19.0793,26.4859z"/>
 </g>
</g>
</g></g><g partID='197240'><g transform='translate(108.927,195.996)' ><g transform='matrix(0,-1,1,0,0,0)'  ><g  id="breadboard">
 <g  id="icon">
  <path  stroke="none" fill="#1F7A34" d="M0,0L0,12.24A2.16,2.16,0,0,1,0,16.56L0,28.8L17.7341,28.8L17.7341,0L0,0z" stroke-width="0"/>
  <g transform="matrix(1, 0, 0, 1, 5.53295, 11.3478)">
   <g >
    <g transform="matrix(0.5, 0, 0, 0.5, 1.66705, 1.52613)">
     <g >
      <rect  connectorname="1" stroke="none" height="3.60001" x="1.26652" y="1.25387" width="1.8" stroke-linecap="round" fill="#8c8c8c" stroke-width="0"/>
      <rect  connectorname="2" stroke="none" height="3.60001" x="3.6017" y="1.25387" width="1.8" stroke-linecap="round" fill="#8c8c8c" stroke-width="0"/>
      <rect  stroke="none" height="6.10451" x="0" y="0" width="6.66822" fill="#303030" stroke-width="0"/>
      <polygon  points="0,0,6.66822,0,5.94822,0.72,0.72,0.72" fill="#1f1f1f"/>
      <polygon  points="0,6.10451,6.66822,6.10451,5.94822,5.38451,0.72,5.38451" fill="#1f1f1f"/>
      <polygon  points="0,0,0,6.10451,0.72,5.38451,0.72,0.72" fill="#000000"/>
      <polygon  points="6.66822,0,6.66822,6.10451,5.94822,5.38451,5.94822,0.72" fill="#3d3d3d"/>
      <circle  cy="3.94451" stroke="none" r="0.72" fill="#1f1f1f" cx="2.16" stroke-width="0"/>
     </g>
    </g>
   </g>
  </g>
  <text  stroke="none" x="3.6" text-anchor="start" y="16.155" id="label" font-family="OCRA" fill="white" font-size="4.68" stroke-width="0">SJ_2S</text>
  <g transform="matrix(1, 0, 0, 1, 9.83909, 23.4756)">
   <g >
    <g transform="rotate(-90)">
     <g >
      <text  stroke="none" x="0" text-anchor="start" y="0" font-family="OCRA" fill="white" font-size="3.24" stroke-width="0">1</text>
     </g>
    </g>
   </g>
  </g>
  <g transform="matrix(1, 0, 0, 1, 9.83909, 5.3244)">
   <g >
    <g transform="rotate(-90)">
     <g >
      <text  stroke="none" x="0" text-anchor="end" y="0" font-family="OCRA" fill="white" font-size="3.24" stroke-width="0">2</text>
     </g>
    </g>
   </g>
  </g>
 </g>
 <g transform="matrix(1, 0, 0, 1, 7.71761, 24.0516)">
  <g >
   <rect  height="2.2968" x="0" y="0" id="connector0pin" width="2.29896" fill="#8D8C8C"/>
   <rect  height="1.18189" x="0.56099" y="0.556952" width="1.18398" fill="#8C8663"/>
   <polygon  points="0,2.2968,0.56099,1.73785,0.56099,0.501957,0,0" fill="#B8AF82"/>
   <polygon  points="1.74297,0.558951,0.56899,0.558951,0,0,2.29896,0" fill="#80795B"/>
   <polygon  points="1.74297,1.73785,1.74297,0.558951,2.29896,0,2.29896,2.2968" fill="#5E5B43"/>
   <polygon  points="0,2.2968,0.56699,1.73785,1.74297,1.73785,2.29896,2.2968" fill="#9A916C"/>
  </g>
 </g>
 <g transform="matrix(1, 0, 0, 1, 7.71761, 2.4516)">
  <g >
   <rect  height="2.2968" x="0" y="0" id="connector1pin" width="2.29896" fill="#8D8C8C"/>
   <rect  height="1.18189" x="0.56099" y="0.556952" width="1.18398" fill="#8C8663"/>
   <polygon  points="0,2.2968,0.56099,1.73785,0.56099,0.501957,0,0" fill="#B8AF82"/>
   <polygon  points="1.74297,0.558951,0.56899,0.558951,0,0,2.29896,0" fill="#80795B"/>
   <polygon  points="1.74297,1.73785,1.74297,0.558951,2.29896,0,2.29896,2.2968" fill="#5E5B43"/>
   <polygon  points="0,2.2968,0.56699,1.73785,1.74297,1.73785,2.29896,2.2968" fill="#9A916C"/>
  </g>
 </g>
</g>
</g></g></g><g partID='197930'><g transform='translate(94.5306,254.803)' ><g transform='matrix(-1,0,0,-1,0,0)'  ><g  id="breadboard">
 <polygon  id="background" points="14.1129,2.87631,14.1129,0,0,0,0,2.87631,0.287157,2.87631,0.287157,5.21324,0,5.21324,0,11.3477,14.1129,11.3477,14.1129,5.21324,14.4,5.21324,14.4,2.87631" fill="#254E89"/>
 <rect  height="0.414746" x="0.126428" id="upperstripe" y="0.171482" width="13.8776" fill="#456DAB" stroke-width="0"/>
 <rect  height="5.14644" x="0" id="lowerrect" y="6.20026" width="14.1129" fill="#123C66" stroke-width="0"/>
 <g transform="translate(0,0)">
  <g  id="plus0">
   <g >
    <path  fill="#3A5C8E" d="M3.53017,5.90316c1.37208,0,2.48935,-1.13457,2.48935,-2.53235L1.03985,3.37081C1.03886,4.76958,2.15515,5.90316,3.53017,5.90316z"/>
    <path  fill="#123C66" d="M3.53017,0.839462c-1.37404,0,-2.49033,1.13557,-2.49033,2.53135l4.97968,0C6.01952,1.97304,4.90422,0.839462,3.53017,0.839462z"/>
   </g>
   <g >
    <g >
     <path  fill="#8B8B8B" d="M3.53017,5.4246c-1.11531,0,-2.02088,-0.921218,-2.02088,-2.05579c0,-1.13257,0.905573,-2.05479,2.02088,-2.05479c1.11433,0,2.0199,0.921218,2.0199,2.05479C5.54909,4.50338,4.64352,5.4246,3.53017,5.4246L3.53017,5.4246z"/>
     <path  d="M3.53017,1.35391c1.09472,0,1.9807,0.903269,1.9807,2.01491c0,1.11264,-0.885974,2.01591,-1.9807,2.01591S1.54751,4.48145,1.54751,3.36882C1.54653,2.25718,2.43446,1.35391,3.53017,1.35391M3.53017,1.28013c-1.13393,0,-2.05812,0.938167,-2.05812,2.09168c0,1.15351,0.922234,2.09367,2.05812,2.09367c1.13197,0,2.05616,-0.937166,2.05616,-2.09367C5.58536,2.21829,4.66312,1.28013,3.53017,1.28013L3.53017,1.28013z"/>
    </g>
    <g >
     <path  fill="#707070" d="M1.6073,2.89724C1.57103,3.04978,1.54653,3.2093,1.54653,3.37181c0,0.164503,0.0245015,0.321029,0.0607636,0.477557l3.84379,0c0.0362622,-0.152539,0.0607636,-0.311059,0.0607636,-0.477557c0,-0.162509,-0.0225413,-0.319036,-0.0607636,-0.474566L1.6073,2.89724z"/>
    </g>
    <g >
     <rect  height="3.41767" x="3.06269" y="1.66198" width="0.933019" fill="#545252" stroke-width="0"/>
     <rect  height="0.948132" x="2.06009" y="2.89724" width="2.9392" fill="#545252" stroke-width="0"/>
    </g>
    <g  opacity="0.5">
     <path  d="M3.53017,1.5204c1.00064,0,1.81703,0.830491,1.81703,1.84841c0,1.01992,-0.816386,1.84941,-1.81703,1.84941c-1.0026,0,-1.81899,-0.830491,-1.81899,-1.84941C1.7102,2.35089,2.52659,1.5204,3.53017,1.5204M3.53017,1.35391c-1.09472,0,-1.98266,0.903269,-1.98266,2.01491c0,1.11264,0.887933,2.01591,1.98266,2.01591s1.9807,-0.903269,1.9807,-2.01591C5.51283,2.25718,4.6249,1.35391,3.53017,1.35391L3.53017,1.35391z"/>
    </g>
   </g>
  </g>
 </g>
 <g transform="translate(0,0)">
  <g  id="maul0">
   <rect  height="2.02687" x="1.03886" y="6.76555" width="4.98066" fill="#103656" stroke-width="0"/>
   <rect  height="2.10264" x="1.03886" y="8.79343" width="4.98066" fill="#254E89" stroke-width="0"/>
   <rect  height="2.52536" x="2.31" y="8.81935" width="2.43839" fill="#254E89" stroke-width="0"/>
   <rect  height="3.8065" x="1.24271" y="6.94301" width="4.57492" fill="#8D8C8C" stroke-width="0"/>
   <path  fill="#A0A0A0" d="M3.53017,10.5262c1.08492,0,1.96795,-0.654023,1.96795,-1.46557l-3.93983,0C1.56025,9.87214,2.4423,10.5262,3.53017,10.5262z"/>
   <path  fill="#565656" d="M3.53017,7.60205c-1.08688,0,-1.97188,0.654023,-1.97188,1.46258l3.93983,0C5.49715,8.25602,4.61706,7.60205,3.53017,7.60205z"/>
   <ellipse  cy="9.06458" rx="1.52693" ry="1.13457" fill="#383838" cx="3.52919" stroke-width="0"/>
   <g >
    <polygon  points="2.22081,8.38562,1.57201,7.46143,1.24271,7.43551,1.30446,6.9161,5.81763,6.9799,5.7549,7.4993,5.54321,7.43551,4.82483,8.38562" fill="#919291"/>
    <g >
     <path  fill="#57585A" d="M5.69218,7.04371l0,0.328008L5.54419,7.37172L5.48049,7.37172L5.44422,7.42356L4.79444,8.32183L2.28354,8.32183L1.62297,7.42255L1.58476,7.37172L1.52301,7.37172L1.36914,7.37172L1.36914,7.04371L5.69218,7.04371M5.81763,6.9161L1.24271,6.9161l0,0.583237l0.279317,0l0.698782,0.950126l2.6344,0l0.687021,-0.950126l0.273437,0L5.81763,6.9161L5.81763,6.9161z"/>
    </g>
   </g>
   <rect  height="1.50047" x="2.50405" y="10.7356" width="2.05224" fill="#8C8C8C" stroke-width="0"/>
  </g>
 </g>
 <rect  height="4.32608" x="2.46876" y="7.91093" id="connector0pin" width="2.26969" fill="none" stroke-width="0"/>
 <g transform="matrix(1, 0, 0, 1, 7.2, 0)">
  <g  id="plus1">
   <g >
    <path  fill="#3A5C8E" d="M3.53017,5.90316c1.37208,0,2.48935,-1.13457,2.48935,-2.53235L1.03985,3.37081C1.03886,4.76958,2.15515,5.90316,3.53017,5.90316z"/>
    <path  fill="#123C66" d="M3.53017,0.839462c-1.37404,0,-2.49033,1.13557,-2.49033,2.53135l4.97968,0C6.01952,1.97304,4.90422,0.839462,3.53017,0.839462z"/>
   </g>
   <g >
    <g >
     <path  fill="#8B8B8B" d="M3.53017,5.4246c-1.11531,0,-2.02088,-0.921218,-2.02088,-2.05579c0,-1.13257,0.905573,-2.05479,2.02088,-2.05479c1.11433,0,2.0199,0.921218,2.0199,2.05479C5.54909,4.50338,4.64352,5.4246,3.53017,5.4246L3.53017,5.4246z"/>
     <path  d="M3.53017,1.35391c1.09472,0,1.9807,0.903269,1.9807,2.01491c0,1.11264,-0.885974,2.01591,-1.9807,2.01591S1.54751,4.48145,1.54751,3.36882C1.54653,2.25718,2.43446,1.35391,3.53017,1.35391M3.53017,1.28013c-1.13393,0,-2.05812,0.938167,-2.05812,2.09168c0,1.15351,0.922234,2.09367,2.05812,2.09367c1.13197,0,2.05616,-0.937166,2.05616,-2.09367C5.58536,2.21829,4.66312,1.28013,3.53017,1.28013L3.53017,1.28013z"/>
    </g>
    <g >
     <path  fill="#707070" d="M1.6073,2.89724C1.57103,3.04978,1.54653,3.2093,1.54653,3.37181c0,0.164503,0.0245015,0.321029,0.0607636,0.477557l3.84379,0c0.0362622,-0.152539,0.0607636,-0.311059,0.0607636,-0.477557c0,-0.162509,-0.0225413,-0.319036,-0.0607636,-0.474566L1.6073,2.89724z"/>
    </g>
    <g >
     <rect  height="3.41767" x="3.06269" y="1.66198" width="0.933019" fill="#545252" stroke-width="0"/>
     <rect  height="0.948132" x="2.06009" y="2.89724" width="2.9392" fill="#545252" stroke-width="0"/>
    </g>
    <g  opacity="0.5">
     <path  d="M3.53017,1.5204c1.00064,0,1.81703,0.830491,1.81703,1.84841c0,1.01992,-0.816386,1.84941,-1.81703,1.84941c-1.0026,0,-1.81899,-0.830491,-1.81899,-1.84941C1.7102,2.35089,2.52659,1.5204,3.53017,1.5204M3.53017,1.35391c-1.09472,0,-1.98266,0.903269,-1.98266,2.01491c0,1.11264,0.887933,2.01591,1.98266,2.01591s1.9807,-0.903269,1.9807,-2.01591C5.51283,2.25718,4.6249,1.35391,3.53017,1.35391L3.53017,1.35391z"/>
    </g>
   </g>
  </g>
 </g>
 <g transform="matrix(1, 0, 0, 1, 7.2, 0)">
  <g  id="maul1">
   <rect  height="2.02687" x="1.03886" y="6.76555" width="4.98066" fill="#103656" stroke-width="0"/>
   <rect  height="2.10264" x="1.03886" y="8.79343" width="4.98066" fill="#254E89" stroke-width="0"/>
   <rect  height="2.52536" x="2.31" y="8.81935" width="2.43839" fill="#254E89" stroke-width="0"/>
   <rect  height="3.8065" x="1.24271" y="6.94301" width="4.57492" fill="#8D8C8C" stroke-width="0"/>
   <path  fill="#A0A0A0" d="M3.53017,10.5262c1.08492,0,1.96795,-0.654023,1.96795,-1.46557l-3.93983,0C1.56025,9.87214,2.4423,10.5262,3.53017,10.5262z"/>
   <path  fill="#565656" d="M3.53017,7.60205c-1.08688,0,-1.97188,0.654023,-1.97188,1.46258l3.93983,0C5.49715,8.25602,4.61706,7.60205,3.53017,7.60205z"/>
   <ellipse  cy="9.06458" rx="1.52693" ry="1.13457" fill="#383838" cx="3.52919" stroke-width="0"/>
   <g >
    <polygon  points="2.22081,8.38562,1.57201,7.46143,1.24271,7.43551,1.30446,6.9161,5.81763,6.9799,5.7549,7.4993,5.54321,7.43551,4.82483,8.38562" fill="#919291"/>
    <g >
     <path  fill="#57585A" d="M5.69218,7.04371l0,0.328008L5.54419,7.37172L5.48049,7.37172L5.44422,7.42356L4.79444,8.32183L2.28354,8.32183L1.62297,7.42255L1.58476,7.37172L1.52301,7.37172L1.36914,7.37172L1.36914,7.04371L5.69218,7.04371M5.81763,6.9161L1.24271,6.9161l0,0.583237l0.279317,0l0.698782,0.950126l2.6344,0l0.687021,-0.950126l0.273437,0L5.81763,6.9161L5.81763,6.9161z"/>
    </g>
   </g>
   <rect  height="1.50047" x="2.50405" y="10.7356" width="2.05224" fill="#8C8C8C" stroke-width="0"/>
  </g>
 </g>
 <rect  height="4.32608" x="9.66876" y="7.91093" id="connector1pin" width="2.26969" fill="none" stroke-width="0"/>
</g>
</g></g></g><path stroke='#8c8c8c' stroke-width='2.094' stroke-linecap='round' stroke-linejoin='round' fill='none' d='M90.1867,229.588L90.927,230.329' />
<path stroke='#8c8c8c' stroke-width='2.094' stroke-linecap='round' stroke-linejoin='round' fill='none' d='M72.0204,211.422L71.28,210.682' />
<g partID='199760'><g transform='translate(94.2341,228.502)' ><g transform='matrix(-0.707107,-0.707107,-0.707107,0.707107,0,0)'  ><g xmlns="http://www.w3.org/2000/svg" id="breadboard">
 <rect xmlns="http://www.w3.org/2000/svg" height="1" x="0.011" id="connector0pin" y="2.583" width="1" fill="none"/>
 <rect xmlns="http://www.w3.org/2000/svg" height="1" x="25.576" id="connector1pin" y="2.583" width="1" fill="none"/>
 <g xmlns="http://www.w3.org/2000/svg" x1="1.047" stroke="#8C8C8C" id="connector0leg" stroke-linecap="round" x2="2.094" y1="3.63" fill="none" y2="3.63" stroke-width="2.094"/>
 <g xmlns="http://www.w3.org/2000/svg" x1="27.785" stroke="#8C8C8C" id="connector1leg" stroke-linecap="round" x2="28.832" y1="3.63" fill="none" y2="3.63" stroke-width="2.094"/>
 <rect xmlns="http://www.w3.org/2000/svg" height="2.094" x="2.094" id="rect7" y="2.583" width="25.691" fill="#8C8C8C"/>
 <g xmlns="http://www.w3.org/2000/svg">
  <path xmlns="http://www.w3.org/2000/svg" id="Body_1_" fill="#1A1A1A" d="M9.159,0L7.002,0c-0.475,0,-0.393,7.193,0,7.193l2.157,0c0.396,0,11.114,0,11.508,0l2.158,0c0.515,0,0.558,-7.193,0,-7.193l-2.158,0C20.27,0,9.553,0,9.159,0z"/>
  <rect xmlns="http://www.w3.org/2000/svg" height="7.193" x="9.783" id="rect16" y="0" opacity="0.74" width="1.992" enable-background="new    " fill="#FFFFFF"/>
  <path xmlns="http://www.w3.org/2000/svg" id="Reflex_1_" opacity="0.4" enable-background="new    " fill="#FFFFFF" d="M7.289,0.358c0.726,0,1.145,0,1.866,0c0.719,0,10.786,0,11.508,0c0.021,0,0.229,0,0.479,0c0.563,0,1.066,0,1.311,0c0.354,0,1.146,0.36,-0.354,0.36c-1.08,0,-0.726,0,-1.438,0c-0.717,0,-10.791,0,-11.508,0c-0.723,0,-1.145,0,-1.866,0C6.931,0.719,6.573,0.358,7.289,0.358z"/>
  <path xmlns="http://www.w3.org/2000/svg" id="Shaddow_1_" opacity="0.4" enable-background="new    " d="M22.822,7.194c-0.727,0.014,-1.438,0,-2.156,0c-0.902,0,-12.942,0,-13.667,0c-0.091,0,-0.202,-0.723,-0.182,-0.723c1.293,0,1.613,0,2.336,0c0.723,0,10.789,0,11.509,0c0.721,0,1.67,0,2.393,0C23.076,6.471,22.969,7.192,22.822,7.194z"/>
 </g>
</g>
</g></g></g><path stroke='#8c8c8c' stroke-width='2.094' stroke-linecap='round' stroke-linejoin='round' fill='none' d='M88.6,232.161L87.8597,232.901' />
<path stroke='#8c8c8c' stroke-width='2.094' stroke-linecap='round' stroke-linejoin='round' fill='none' d='M106.766,213.994L107.507,213.254' />
<g partID='199780'><g transform='translate(84.5525,231.075)' ><g transform='matrix(0.707107,-0.707107,0.707107,0.707107,0,0)'  ><g xmlns="http://www.w3.org/2000/svg" id="breadboard">
 <rect xmlns="http://www.w3.org/2000/svg" height="1" x="0.011" id="connector0pin" y="2.583" width="1" fill="none"/>
 <rect xmlns="http://www.w3.org/2000/svg" height="1" x="25.576" id="connector1pin" y="2.583" width="1" fill="none"/>
 <g xmlns="http://www.w3.org/2000/svg" x1="1.047" stroke="#8C8C8C" id="connector0leg" stroke-linecap="round" x2="2.094" y1="3.63" fill="none" y2="3.63" stroke-width="2.094"/>
 <g xmlns="http://www.w3.org/2000/svg" x1="27.785" stroke="#8C8C8C" id="connector1leg" stroke-linecap="round" x2="28.832" y1="3.63" fill="none" y2="3.63" stroke-width="2.094"/>
 <rect xmlns="http://www.w3.org/2000/svg" height="2.094" x="2.094" id="rect7" y="2.583" width="25.691" fill="#8C8C8C"/>
 <g xmlns="http://www.w3.org/2000/svg">
  <path xmlns="http://www.w3.org/2000/svg" id="Body_1_" fill="#1A1A1A" d="M9.159,0L7.002,0c-0.475,0,-0.393,7.193,0,7.193l2.157,0c0.396,0,11.114,0,11.508,0l2.158,0c0.515,0,0.558,-7.193,0,-7.193l-2.158,0C20.27,0,9.553,0,9.159,0z"/>
  <rect xmlns="http://www.w3.org/2000/svg" height="7.193" x="9.783" id="rect16" y="0" opacity="0.74" width="1.992" enable-background="new    " fill="#FFFFFF"/>
  <path xmlns="http://www.w3.org/2000/svg" id="Reflex_1_" opacity="0.4" enable-background="new    " fill="#FFFFFF" d="M7.289,0.358c0.726,0,1.145,0,1.866,0c0.719,0,10.786,0,11.508,0c0.021,0,0.229,0,0.479,0c0.563,0,1.066,0,1.311,0c0.354,0,1.146,0.36,-0.354,0.36c-1.08,0,-0.726,0,-1.438,0c-0.717,0,-10.791,0,-11.508,0c-0.723,0,-1.145,0,-1.866,0C6.931,0.719,6.573,0.358,7.289,0.358z"/>
  <path xmlns="http://www.w3.org/2000/svg" id="Shaddow_1_" opacity="0.4" enable-background="new    " d="M22.822,7.194c-0.727,0.014,-1.438,0,-2.156,0c-0.902,0,-12.942,0,-13.667,0c-0.091,0,-0.202,-0.723,-0.182,-0.723c1.293,0,1.613,0,2.336,0c0.723,0,10.789,0,11.509,0c0.721,0,1.67,0,2.393,0C23.076,6.471,22.969,7.192,22.822,7.194z"/>
 </g>
</g>
</g></g></g><path stroke='#8c8c8c' stroke-width='2.094' stroke-linecap='round' stroke-linejoin='round' fill='none' d='M91.7098,195.027L90.9694,194.286' />
<path stroke='#8c8c8c' stroke-width='2.094' stroke-linecap='round' stroke-linejoin='round' fill='none' d='M109.876,213.193L110.616,213.933' />
<g partID='199740'><g transform='translate(92.7959,190.979)' ><g transform='matrix(0.707107,0.707107,-0.707107,0.707107,0,0)'  ><g xmlns="http://www.w3.org/2000/svg" id="breadboard">
 <rect xmlns="http://www.w3.org/2000/svg" height="1" x="0.011" id="connector0pin" y="2.583" width="1" fill="none"/>
 <rect xmlns="http://www.w3.org/2000/svg" height="1" x="25.576" id="connector1pin" y="2.583" width="1" fill="none"/>
 <g xmlns="http://www.w3.org/2000/svg" x1="1.047" stroke="#8C8C8C" id="connector0leg" stroke-linecap="round" x2="2.094" y1="3.63" fill="none" y2="3.63" stroke-width="2.094"/>
 <g xmlns="http://www.w3.org/2000/svg" x1="27.785" stroke="#8C8C8C" id="connector1leg" stroke-linecap="round" x2="28.832" y1="3.63" fill="none" y2="3.63" stroke-width="2.094"/>
 <rect xmlns="http://www.w3.org/2000/svg" height="2.094" x="2.094" id="rect7" y="2.583" width="25.691" fill="#8C8C8C"/>
 <g xmlns="http://www.w3.org/2000/svg">
  <path xmlns="http://www.w3.org/2000/svg" id="Body_1_" fill="#1A1A1A" d="M9.159,0L7.002,0c-0.475,0,-0.393,7.193,0,7.193l2.157,0c0.396,0,11.114,0,11.508,0l2.158,0c0.515,0,0.558,-7.193,0,-7.193l-2.158,0C20.27,0,9.553,0,9.159,0z"/>
  <rect xmlns="http://www.w3.org/2000/svg" height="7.193" x="9.783" id="rect16" y="0" opacity="0.74" width="1.992" enable-background="new    " fill="#FFFFFF"/>
  <path xmlns="http://www.w3.org/2000/svg" id="Reflex_1_" opacity="0.4" enable-background="new    " fill="#FFFFFF" d="M7.289,0.358c0.726,0,1.145,0,1.866,0c0.719,0,10.786,0,11.508,0c0.021,0,0.229,0,0.479,0c0.563,0,1.066,0,1.311,0c0.354,0,1.146,0.36,-0.354,0.36c-1.08,0,-0.726,0,-1.438,0c-0.717,0,-10.791,0,-11.508,0c-0.723,0,-1.145,0,-1.866,0C6.931,0.719,6.573,0.358,7.289,0.358z"/>
  <path xmlns="http://www.w3.org/2000/svg" id="Shaddow_1_" opacity="0.4" enable-background="new    " d="M22.822,7.194c-0.727,0.014,-1.438,0,-2.156,0c-0.902,0,-12.942,0,-13.667,0c-0.091,0,-0.202,-0.723,-0.182,-0.723c1.293,0,1.613,0,2.336,0c0.723,0,10.789,0,11.509,0c0.721,0,1.67,0,2.393,0C23.076,6.471,22.969,7.192,22.822,7.194z"/>
 </g>
</g>
</g></g></g><path stroke='#8c8c8c' stroke-width='2.094' stroke-linecap='round' stroke-linejoin='round' fill='none' d='M92.3239,192.352L93.0642,191.612' />
<path stroke='#8c8c8c' stroke-width='2.094' stroke-linecap='round' stroke-linejoin='round' fill='none' d='M74.1576,210.518L73.4172,211.259' />
<g partID='199710'><g transform='translate(96.3713,193.438)' ><g transform='matrix(-0.707107,0.707107,-0.707107,-0.707107,0,0)'  ><g xmlns="http://www.w3.org/2000/svg" id="breadboard">
 <rect xmlns="http://www.w3.org/2000/svg" height="1" x="0.011" id="connector0pin" y="2.583" width="1" fill="none"/>
 <rect xmlns="http://www.w3.org/2000/svg" height="1" x="25.576" id="connector1pin" y="2.583" width="1" fill="none"/>
 <g xmlns="http://www.w3.org/2000/svg" x1="1.047" stroke="#8C8C8C" id="connector0leg" stroke-linecap="round" x2="2.094" y1="3.63" fill="none" y2="3.63" stroke-width="2.094"/>
 <g xmlns="http://www.w3.org/2000/svg" x1="27.785" stroke="#8C8C8C" id="connector1leg" stroke-linecap="round" x2="28.832" y1="3.63" fill="none" y2="3.63" stroke-width="2.094"/>
 <rect xmlns="http://www.w3.org/2000/svg" height="2.094" x="2.094" id="rect7" y="2.583" width="25.691" fill="#8C8C8C"/>
 <g xmlns="http://www.w3.org/2000/svg">
  <path xmlns="http://www.w3.org/2000/svg" id="Body_1_" fill="#1A1A1A" d="M9.159,0L7.002,0c-0.475,0,-0.393,7.193,0,7.193l2.157,0c0.396,0,11.114,0,11.508,0l2.158,0c0.515,0,0.558,-7.193,0,-7.193l-2.158,0C20.27,0,9.553,0,9.159,0z"/>
  <rect xmlns="http://www.w3.org/2000/svg" height="7.193" x="9.783" id="rect16" y="0" opacity="0.74" width="1.992" enable-background="new    " fill="#FFFFFF"/>
  <path xmlns="http://www.w3.org/2000/svg" id="Reflex_1_" opacity="0.4" enable-background="new    " fill="#FFFFFF" d="M7.289,0.358c0.726,0,1.145,0,1.866,0c0.719,0,10.786,0,11.508,0c0.021,0,0.229,0,0.479,0c0.563,0,1.066,0,1.311,0c0.354,0,1.146,0.36,-0.354,0.36c-1.08,0,-0.726,0,-1.438,0c-0.717,0,-10.791,0,-11.508,0c-0.723,0,-1.145,0,-1.866,0C6.931,0.719,6.573,0.358,7.289,0.358z"/>
  <path xmlns="http://www.w3.org/2000/svg" id="Shaddow_1_" opacity="0.4" enable-background="new    " d="M22.822,7.194c-0.727,0.014,-1.438,0,-2.156,0c-0.902,0,-12.942,0,-13.667,0c-0.091,0,-0.202,-0.723,-0.182,-0.723c1.293,0,1.613,0,2.336,0c0.723,0,10.789,0,11.509,0c0.721,0,1.67,0,2.393,0C23.076,6.471,22.969,7.192,22.822,7.194z"/>
 </g>
</g>
</g></g></g><path stroke='#8c8c8c' stroke-width='2.16' stroke-linecap='round' stroke-linejoin='round' fill='none' d='M76.527,43.1287L76.527,50.3287' />
<path stroke='#8c8c8c' stroke-width='2.16' stroke-linecap='round' stroke-linejoin='round' fill='none' d='M69.327,43.1287L69.327,50.3287' />
<g partID='202280'><g transform='translate(84.3001,0)' ><g transform='matrix(-1,0,0,1,0,0)'  ><g xmlns="http://www.w3.org/2000/svg" id="breadboard">
 <rect xmlns="http://www.w3.org/2000/svg" height="0.72" x="13.8931" id="connector1pin" y="37.3687" width="2.16" fill="none"/>
 <rect xmlns="http://www.w3.org/2000/svg" height="0.72" x="6.69312" id="connector0pin" y="37.3687" width="2.16" fill="none"/>
 <g xmlns="http://www.w3.org/2000/svg" x1="10.796" stroke="#8C8C8C" id="connector0leg" stroke-linecap="round" x2="10.796" y1="59.901" fill="none" y2="69.901" stroke-width="2.16"/>
 <g xmlns="http://www.w3.org/2000/svg" x1="20.796" stroke="#8C8C8C" id="connector1leg" stroke-linecap="round" x2="20.796" y1="59.901" fill="none" y2="69.901" stroke-width="2.16"/>
 <g xmlns="http://www.w3.org/2000/svg">
  <rect xmlns="http://www.w3.org/2000/svg" height="10.8" x="6.69312" y="32.3287" width="2.16" fill="#8C8C8C"/>
  <rect xmlns="http://www.w3.org/2000/svg" height="10.8" x="13.8931" y="32.3287" width="2.16" fill="#8C8C8C"/>
  <ellipse xmlns="http://www.w3.org/2000/svg" cy="32.3273" rx="11.3371" ry="7.93728" fill="#0D0033" cx="11.3393"/>
  <rect xmlns="http://www.w3.org/2000/svg" height="1.61856" y="30.7102" width="22.6685" fill="#0D0033"/>
  <ellipse xmlns="http://www.w3.org/2000/svg" cy="31.0428" rx="11.3371" ry="7.93656" fill="#100040" cx="11.3393"/>
  <ellipse xmlns="http://www.w3.org/2000/svg" cy="25.5262" rx="11.3371" ry="7.93728" fill="#0D0033" cx="11.3393"/>
  <rect xmlns="http://www.w3.org/2000/svg" height="17.4679" y="8.05608" width="22.6764" fill="#0D0033"/>
  <ellipse xmlns="http://www.w3.org/2000/svg" cy="8.05608" rx="11.3371" ry="7.93728" fill="#0D0033" cx="11.3393"/>
  <ellipse xmlns="http://www.w3.org/2000/svg" cy="7.35264" rx="10.5012" ry="7.35264" fill="#100040" cx="11.3393"/>
  <ellipse xmlns="http://www.w3.org/2000/svg" cy="6.92712" rx="7.6968" ry="5.3892" fill="#B2B2B2" cx="11.3393"/>
  <path xmlns="http://www.w3.org/2000/svg" fill="#D2EEFF" d="M2.214,3.34512C0.82512,4.662,0,6.29136,0,8.05608l0,4.3848l1.51704,0l0,-0.42336l0.018,-0.15912c0,0,0,0.0828,0,-0.21384c0,-0.53064,0.252,-0.87264,0.67896,-1.04184c0.41112,-0.16272,0.38016,-3.06504,0.38016,-3.06504L2.214,3.34512z"/>
  <path xmlns="http://www.w3.org/2000/svg" fill="#D2EEFF" d="M3.64392,6.92784c0,-0.95544,0.3564,-1.8504,0.9792,-2.628l-2.4084,-0.9576C1.34064,4.41216,0.83736,5.65128,0.83736,6.97248c0,1.32048,0.50472,2.56032,1.37736,3.63168l2.466,-0.98064C4.02336,8.82936,3.64392,7.90992,3.64392,6.92784z"/>
  <rect xmlns="http://www.w3.org/2000/svg" height="13.667" y="11.8591" width="1.53576" fill="#D2EEFF"/>
  <rect xmlns="http://www.w3.org/2000/svg" height="2.61" y="20.2234" width="1.53576" fill="#D2EEFF"/>
  <path xmlns="http://www.w3.org/2000/svg" fill="#D2EEFF" d="M0,31.0442l0,1.28304c0,1.45296,0.56016,2.8116,1.53576,3.98376L1.53576,35.028l0,-6.68808l0,-1.28304C0.56016,28.2312,0,29.5913,0,31.0442z"/>
  <path xmlns="http://www.w3.org/2000/svg" fill="#D2EEFF" d="M1.53576,21.5424C0.56016,22.7117,0,24.0725,0,25.5262c0,1.45296,0.56016,2.81088,1.53576,3.98232L1.53576,21.5424z"/>
  <path xmlns="http://www.w3.org/2000/svg" fill="#D2EEFF" d="M1.53576,35.694c0,0,0,-0.29304,0,-0.666c0,-0.37512,0.07992,-1.66608,0.20664,-2.24208c0.20808,-0.94896,0.64584,-1.60416,0.64584,-2.6064c0,-0.33984,-0.19296,-0.81648,-0.4788,-1.10376c-0.28584,-0.28512,-0.3816,-0.7308,-0.3816,-1.19736c0,-0.46872,0,-1.06272,0,-1.06272l-0.65736,0.02088l0.072,8.18136L1.53576,35.694z"/>
  <path xmlns="http://www.w3.org/2000/svg" opacity="0.35" d="M11.3393,1.7928c4.18968,0,7.59024,2.34648,7.68816,5.26248c0.00216,-0.0432,0.01368,-0.08568,0.01368,-0.12888c0,-2.97576,-3.44952,-5.38848,-7.69896,-5.38848c-4.24872,0,-7.69608,2.41488,-7.69608,5.38848c0,0.0432,0.0072,0.08424,0.01008,0.12888C3.74904,4.13928,7.1496,1.7928,11.3393,1.7928z"/>
  <path xmlns="http://www.w3.org/2000/svg" opacity="0.35" d="M14.6513,16.0798l0,1.854l0,9.54216c0,0,0,4.8924,0,5.08608c0,0.19296,-0.06408,0.35352,-0.14256,0.50616c-0.0936,0.17856,-0.30456,0.45072,-0.30456,0.45072c3.01968,-0.64584,5.67576,-2.39184,7.04664,-4.34808c0.09432,-0.1224,0.1908,-0.378,0.2268,-0.4896c0.03384,-0.11304,0.04536,-0.22608,0.04536,-0.22608L21.523,27.4752l0,-5.43528l0,-10.0656C20.1564,13.9313,17.6702,15.4346,14.6513,16.0798z"/>
  <path xmlns="http://www.w3.org/2000/svg" opacity="0.35" d="M21.348,33.7932c-0.10512,-0.28296,-0.41184,-0.64008,-0.41184,-0.64008c-1.36728,1.9548,-3.75408,3.00024,-6.77448,3.6432c0,0,0.27072,0.46008,0.3888,0.85464c0.1152,0.39096,0.10224,0.9828,0.10224,0.9828l0,1.28448c3.0204,-0.64512,5.508,-2.14848,6.87384,-4.10472c0,0,0,-0.89352,0,-1.12752C21.5258,34.421,21.4394,34.0265,21.348,33.7932z"/>
  <path xmlns="http://www.w3.org/2000/svg" opacity="0.2" fill="#FFFFFF" d="M10.8302,36.2023c-0.01872,-0.27288,-0.07344,-0.51552,-0.14256,-0.7236c-4.81608,-0.21096,-8.73216,-2.7288,-9.52776,-5.99184c-0.15264,0.12096,-0.32832,0.28584,-0.43344,0.47376c-0.08352,0.15336,-0.16128,0.3816,-0.22536,0.59832c0.7704,3.57912,5.05728,6.3432,10.3219,6.51528C10.8432,36.8309,10.8533,36.5429,10.8302,36.2023z"/>
  <path xmlns="http://www.w3.org/2000/svg" opacity="0.2" fill="#FFFFFF" d="M15.5642,13.7938c0.00936,-0.17496,-0.12744,-0.29376,-0.23688,-0.34344c-0.11664,-0.04968,-0.31248,-0.12888,-0.6768,-0.03312l-0.02952,0c-1.0296,0.25488,-2.12688,0.40104,-3.28176,0.40104c-5.43744,0,-9.846,-3.08592,-9.846,-6.89184c0,-0.10728,0.01656,-0.21312,0.02304,-0.31752C1.51488,6.59808,1.50624,6.59376,1.50624,6.58296c0,-0.17064,-0.06696,-0.38952,-0.21024,-0.414c-0.1656,-0.02736,-0.24624,0.10728,-0.3276,0.28008C0.92664,6.53328,0.89712,6.65352,0.87552,6.79536C0.87336,6.81408,0.86976,6.8328,0.8676,6.85008C0.864,6.87024,0.86328,6.89184,0.86112,6.912c-0.01656,0.14688,-0.0252,0.29232,-0.0252,0.43992c0,4.06152,4.70232,7.35336,10.5034,7.35336c1.45656,0,2.83032,-0.22464,4.08528,-0.59832C15.5455,14.0472,15.5585,13.945,15.5642,13.7938z"/>
  <path xmlns="http://www.w3.org/2000/svg" fill="#FFFFFF" d="M0.7272,29.9621c-0.08352,0.15408,-0.16128,0.3816,-0.22536,0.5976c0.1908,0.89136,0.60336,1.73016,1.18944,2.49192c0.01584,-0.10152,0.0324,-0.18936,0.0504,-0.26712c0.10152,-0.46728,0.25848,-0.85824,0.39024,-1.2564c-0.45792,-0.63432,-0.79704,-1.31832,-0.972,-2.0412C1.00656,29.6078,0.83304,29.7756,0.7272,29.9621z"/>
  <path xmlns="http://www.w3.org/2000/svg" fill="#FFFFFF" d="M1.49328,6.92784c0,-0.108,0.01656,-0.21312,0.02304,-0.31752C1.51488,6.5988,1.50552,6.59448,1.50552,6.5844c0,-0.17064,-0.06696,-0.39024,-0.21024,-0.414c-0.16488,-0.0288,-0.24552,0.10584,-0.32688,0.27864c-0.04248,0.08496,-0.072,0.2052,-0.09288,0.34632C0.87264,6.81408,0.86832,6.8328,0.86616,6.85008C0.86328,6.87024,0.86184,6.89184,0.85968,6.912c-0.01512,0.14688,-0.02376,0.29232,-0.02376,0.43992c0,1.21536,0.42984,2.35656,1.17216,3.366c0.06408,-0.04248,0.1296,-0.08352,0.20592,-0.11376l0.59904,-0.23832C1.97928,9.35208,1.49328,8.18064,1.49328,6.92784z"/>
 </g>
</g>
</g></g></g><path stroke='#8c8c8c' stroke-width='2.16' stroke-linecap='round' stroke-linejoin='round' fill='none' d='M76.527,107.929L76.527,115.129' />
<path stroke='#8c8c8c' stroke-width='2.16' stroke-linecap='round' stroke-linejoin='round' fill='none' d='M69.327,107.929L69.327,115.129' />
<g partID='202300'><g transform='translate(84.3001,64.8)' ><g transform='matrix(-1,0,0,1,0,0)'  ><g xmlns="http://www.w3.org/2000/svg" id="breadboard">
 <rect xmlns="http://www.w3.org/2000/svg" height="0.72" x="13.8931" id="connector1pin" y="37.3687" width="2.16" fill="none"/>
 <rect xmlns="http://www.w3.org/2000/svg" height="0.72" x="6.69312" id="connector0pin" y="37.3687" width="2.16" fill="none"/>
 <g xmlns="http://www.w3.org/2000/svg" x1="10.796" stroke="#8C8C8C" id="connector0leg" stroke-linecap="round" x2="10.796" y1="59.901" fill="none" y2="69.901" stroke-width="2.16"/>
 <g xmlns="http://www.w3.org/2000/svg" x1="20.796" stroke="#8C8C8C" id="connector1leg" stroke-linecap="round" x2="20.796" y1="59.901" fill="none" y2="69.901" stroke-width="2.16"/>
 <g xmlns="http://www.w3.org/2000/svg">
  <rect xmlns="http://www.w3.org/2000/svg" height="10.8" x="6.69312" y="32.3287" width="2.16" fill="#8C8C8C"/>
  <rect xmlns="http://www.w3.org/2000/svg" height="10.8" x="13.8931" y="32.3287" width="2.16" fill="#8C8C8C"/>
  <ellipse xmlns="http://www.w3.org/2000/svg" cy="32.3273" rx="11.3371" ry="7.93728" fill="#0D0033" cx="11.3393"/>
  <rect xmlns="http://www.w3.org/2000/svg" height="1.61856" y="30.7102" width="22.6685" fill="#0D0033"/>
  <ellipse xmlns="http://www.w3.org/2000/svg" cy="31.0428" rx="11.3371" ry="7.93656" fill="#100040" cx="11.3393"/>
  <ellipse xmlns="http://www.w3.org/2000/svg" cy="25.5262" rx="11.3371" ry="7.93728" fill="#0D0033" cx="11.3393"/>
  <rect xmlns="http://www.w3.org/2000/svg" height="17.4679" y="8.05608" width="22.6764" fill="#0D0033"/>
  <ellipse xmlns="http://www.w3.org/2000/svg" cy="8.05608" rx="11.3371" ry="7.93728" fill="#0D0033" cx="11.3393"/>
  <ellipse xmlns="http://www.w3.org/2000/svg" cy="7.35264" rx="10.5012" ry="7.35264" fill="#100040" cx="11.3393"/>
  <ellipse xmlns="http://www.w3.org/2000/svg" cy="6.92712" rx="7.6968" ry="5.3892" fill="#B2B2B2" cx="11.3393"/>
  <path xmlns="http://www.w3.org/2000/svg" fill="#D2EEFF" d="M2.214,3.34512C0.82512,4.662,0,6.29136,0,8.05608l0,4.3848l1.51704,0l0,-0.42336l0.018,-0.15912c0,0,0,0.0828,0,-0.21384c0,-0.53064,0.252,-0.87264,0.67896,-1.04184c0.41112,-0.16272,0.38016,-3.06504,0.38016,-3.06504L2.214,3.34512z"/>
  <path xmlns="http://www.w3.org/2000/svg" fill="#D2EEFF" d="M3.64392,6.92784c0,-0.95544,0.3564,-1.8504,0.9792,-2.628l-2.4084,-0.9576C1.34064,4.41216,0.83736,5.65128,0.83736,6.97248c0,1.32048,0.50472,2.56032,1.37736,3.63168l2.466,-0.98064C4.02336,8.82936,3.64392,7.90992,3.64392,6.92784z"/>
  <rect xmlns="http://www.w3.org/2000/svg" height="13.667" y="11.8591" width="1.53576" fill="#D2EEFF"/>
  <rect xmlns="http://www.w3.org/2000/svg" height="2.61" y="20.2234" width="1.53576" fill="#D2EEFF"/>
  <path xmlns="http://www.w3.org/2000/svg" fill="#D2EEFF" d="M0,31.0442l0,1.28304c0,1.45296,0.56016,2.8116,1.53576,3.98376L1.53576,35.028l0,-6.68808l0,-1.28304C0.56016,28.2312,0,29.5913,0,31.0442z"/>
  <path xmlns="http://www.w3.org/2000/svg" fill="#D2EEFF" d="M1.53576,21.5424C0.56016,22.7117,0,24.0725,0,25.5262c0,1.45296,0.56016,2.81088,1.53576,3.98232L1.53576,21.5424z"/>
  <path xmlns="http://www.w3.org/2000/svg" fill="#D2EEFF" d="M1.53576,35.694c0,0,0,-0.29304,0,-0.666c0,-0.37512,0.07992,-1.66608,0.20664,-2.24208c0.20808,-0.94896,0.64584,-1.60416,0.64584,-2.6064c0,-0.33984,-0.19296,-0.81648,-0.4788,-1.10376c-0.28584,-0.28512,-0.3816,-0.7308,-0.3816,-1.19736c0,-0.46872,0,-1.06272,0,-1.06272l-0.65736,0.02088l0.072,8.18136L1.53576,35.694z"/>
  <path xmlns="http://www.w3.org/2000/svg" opacity="0.35" d="M11.3393,1.7928c4.18968,0,7.59024,2.34648,7.68816,5.26248c0.00216,-0.0432,0.01368,-0.08568,0.01368,-0.12888c0,-2.97576,-3.44952,-5.38848,-7.69896,-5.38848c-4.24872,0,-7.69608,2.41488,-7.69608,5.38848c0,0.0432,0.0072,0.08424,0.01008,0.12888C3.74904,4.13928,7.1496,1.7928,11.3393,1.7928z"/>
  <path xmlns="http://www.w3.org/2000/svg" opacity="0.35" d="M14.6513,16.0798l0,1.854l0,9.54216c0,0,0,4.8924,0,5.08608c0,0.19296,-0.06408,0.35352,-0.14256,0.50616c-0.0936,0.17856,-0.30456,0.45072,-0.30456,0.45072c3.01968,-0.64584,5.67576,-2.39184,7.04664,-4.34808c0.09432,-0.1224,0.1908,-0.378,0.2268,-0.4896c0.03384,-0.11304,0.04536,-0.22608,0.04536,-0.22608L21.523,27.4752l0,-5.43528l0,-10.0656C20.1564,13.9313,17.6702,15.4346,14.6513,16.0798z"/>
  <path xmlns="http://www.w3.org/2000/svg" opacity="0.35" d="M21.348,33.7932c-0.10512,-0.28296,-0.41184,-0.64008,-0.41184,-0.64008c-1.36728,1.9548,-3.75408,3.00024,-6.77448,3.6432c0,0,0.27072,0.46008,0.3888,0.85464c0.1152,0.39096,0.10224,0.9828,0.10224,0.9828l0,1.28448c3.0204,-0.64512,5.508,-2.14848,6.87384,-4.10472c0,0,0,-0.89352,0,-1.12752C21.5258,34.421,21.4394,34.0265,21.348,33.7932z"/>
  <path xmlns="http://www.w3.org/2000/svg" opacity="0.2" fill="#FFFFFF" d="M10.8302,36.2023c-0.01872,-0.27288,-0.07344,-0.51552,-0.14256,-0.7236c-4.81608,-0.21096,-8.73216,-2.7288,-9.52776,-5.99184c-0.15264,0.12096,-0.32832,0.28584,-0.43344,0.47376c-0.08352,0.15336,-0.16128,0.3816,-0.22536,0.59832c0.7704,3.57912,5.05728,6.3432,10.3219,6.51528C10.8432,36.8309,10.8533,36.5429,10.8302,36.2023z"/>
  <path xmlns="http://www.w3.org/2000/svg" opacity="0.2" fill="#FFFFFF" d="M15.5642,13.7938c0.00936,-0.17496,-0.12744,-0.29376,-0.23688,-0.34344c-0.11664,-0.04968,-0.31248,-0.12888,-0.6768,-0.03312l-0.02952,0c-1.0296,0.25488,-2.12688,0.40104,-3.28176,0.40104c-5.43744,0,-9.846,-3.08592,-9.846,-6.89184c0,-0.10728,0.01656,-0.21312,0.02304,-0.31752C1.51488,6.59808,1.50624,6.59376,1.50624,6.58296c0,-0.17064,-0.06696,-0.38952,-0.21024,-0.414c-0.1656,-0.02736,-0.24624,0.10728,-0.3276,0.28008C0.92664,6.53328,0.89712,6.65352,0.87552,6.79536C0.87336,6.81408,0.86976,6.8328,0.8676,6.85008C0.864,6.87024,0.86328,6.89184,0.86112,6.912c-0.01656,0.14688,-0.0252,0.29232,-0.0252,0.43992c0,4.06152,4.70232,7.35336,10.5034,7.35336c1.45656,0,2.83032,-0.22464,4.08528,-0.59832C15.5455,14.0472,15.5585,13.945,15.5642,13.7938z"/>
  <path xmlns="http://www.w3.org/2000/svg" fill="#FFFFFF" d="M0.7272,29.9621c-0.08352,0.15408,-0.16128,0.3816,-0.22536,0.5976c0.1908,0.89136,0.60336,1.73016,1.18944,2.49192c0.01584,-0.10152,0.0324,-0.18936,0.0504,-0.26712c0.10152,-0.46728,0.25848,-0.85824,0.39024,-1.2564c-0.45792,-0.63432,-0.79704,-1.31832,-0.972,-2.0412C1.00656,29.6078,0.83304,29.7756,0.7272,29.9621z"/>
  <path xmlns="http://www.w3.org/2000/svg" fill="#FFFFFF" d="M1.49328,6.92784c0,-0.108,0.01656,-0.21312,0.02304,-0.31752C1.51488,6.5988,1.50552,6.59448,1.50552,6.5844c0,-0.17064,-0.06696,-0.39024,-0.21024,-0.414c-0.16488,-0.0288,-0.24552,0.10584,-0.32688,0.27864c-0.04248,0.08496,-0.072,0.2052,-0.09288,0.34632C0.87264,6.81408,0.86832,6.8328,0.86616,6.85008C0.86328,6.87024,0.86184,6.89184,0.85968,6.912c-0.01512,0.14688,-0.02376,0.29232,-0.02376,0.43992c0,1.21536,0.42984,2.35656,1.17216,3.366c0.06408,-0.04248,0.1296,-0.08352,0.20592,-0.11376l0.59904,-0.23832C1.97928,9.35208,1.49328,8.18064,1.49328,6.92784z"/>
 </g>
</g>
</g></g></g><path stroke='#8c8c8c' stroke-width='1.988' stroke-linecap='round' stroke-linejoin='round' fill='none' d='M4.52701,133.714L4.52701,158.329' />
<path stroke='#8c8c8c' stroke-width='1.988' stroke-linecap='round' stroke-linejoin='round' fill='none' d='M11.729,133.714L11.729,158.329' />
<g partID='206940'><g transform='translate(0,104.507)' ><g xmlns="http://www.w3.org/2000/svg" id="breadboard">
 <rect xmlns="http://www.w3.org/2000/svg" height="0.72" x="3.45101" id="connector0pin" y="25.421" width="2.151" fill="none"/>
 <rect xmlns="http://www.w3.org/2000/svg" height="0.72" x="10.651" id="connector1pin" y="25.421" width="2.154" fill="none"/>
 <g xmlns="http://www.w3.org/2000/svg" stroke="#8C8C8C" x1="4.527" id="connector0leg" stroke-linecap="round" x2="4.527" y1="29.207" fill="none" stroke-width="1.988" y2="53.822"/>
 <g xmlns="http://www.w3.org/2000/svg" stroke="#8C8C8C" x1="11.729" id="connector1leg" stroke-linecap="round" x2="11.729" y1="29.207" fill="none" stroke-width="1.988" y2="53.822"/>
 <rect xmlns="http://www.w3.org/2000/svg" height="9.82801" x="3.45101" y="19.379" width="2.151" fill="#8C8C8C"/>
 <path xmlns="http://www.w3.org/2000/svg" fill="#8C8C8C" d="M12.805,29.207c0,-1.174,-1.065,-2.103,-2.089,-2.992c-0.416001,-0.367,-1.199,-1.001,-1.199,-1.424L9.51701,19.32L7.35601,19.32L7.35601,25.1c0,1.059,0.947001,1.879,1.946,2.748c0.444001,0.377,1.349,1.25,1.349,1.771"/>
 <g xmlns="http://www.w3.org/2000/svg" id="g12">
  <path xmlns="http://www.w3.org/2000/svg" id="color_path14" opacity="0.3" enable-background="new    " fill="#0000ee" d="M11.694,14.099L11.694,9.80001c0,-2.845,-2.303,-5.153,-5.15101,-5.153C3.69801,4.647,1.39,6.951,1.39,9.80001l0,9.92101c1.071,1.201,2.979,2.001,5.15301,2.001c3.35901,0,6.08301,-1.902,6.08301,-4.26l0,-1.107C12.626,15.525,12.281,14.754,11.694,14.099z"/>
  <path xmlns="http://www.w3.org/2000/svg" id="path16" opacity="0.5" enable-background="new    " fill="#E6E6E6" d="M11.694,14.099L11.694,9.80001c0,-2.845,-2.303,-5.153,-5.15101,-5.153C3.69801,4.647,1.39,6.951,1.39,9.80001l0,9.92101c1.071,1.201,2.979,2.001,5.15301,2.001c3.35901,0,6.08301,-1.902,6.08301,-4.26l0,-1.107C12.626,15.525,12.281,14.754,11.694,14.099z"/>
  <path xmlns="http://www.w3.org/2000/svg" id="path18" opacity="0.9" enable-background="new    " fill="#D1D1D1" d="M11.694,14.099l0,2.257c0,1.991,-2.301,3.608,-5.15101,3.608c-2.845,0,-5.15301,-1.612,-5.15301,-3.608l0,2.257l0,1.109c1.071,1.2,2.979,2,5.15301,2c3.35901,0,6.08301,-1.902,6.08301,-4.26l0,-1.106C12.626,15.525,12.281,14.754,11.694,14.099z"/>
  <path xmlns="http://www.w3.org/2000/svg" id="color_path20" opacity="0.7" enable-background="new    " fill="#0000ee" d="M11.694,14.099l0,2.257c0,1.991,-2.301,3.608,-5.15101,3.608c-2.845,0,-5.15301,-1.612,-5.15301,-3.608l0,2.257l0,1.109c1.071,1.2,2.979,2,5.15301,2c3.35901,0,6.08301,-1.902,6.08301,-4.26l0,-1.106C12.626,15.525,12.281,14.754,11.694,14.099z"/>
  <path xmlns="http://www.w3.org/2000/svg" id="color_path22" opacity="0.25" enable-background="new    " fill="#0000ee" d="M11.694,14.099l0,2.257c0,1.991,-2.301,3.608,-5.15101,3.608c-2.845,0,-5.15301,-1.612,-5.15301,-3.608l0,2.257c1.071,1.2,2.979,2.001,5.15301,2.001c3.35901,0,6.08301,-1.903,6.08301,-4.259C12.626,15.525,12.281,14.754,11.694,14.099z"/>
  <ellipse xmlns="http://www.w3.org/2000/svg" cy="16.356" id="ellipse24" opacity="0.25" rx="5.15301" enable-background="new    " ry="3.606" fill="#E6E6E6" cx="6.54301"/>
  <ellipse xmlns="http://www.w3.org/2000/svg" cy="16.356" id="color_ellipse26" opacity="0.25" rx="5.15301" enable-background="new    " ry="3.606" fill="#0000ee" cx="6.54301"/>
  <polygon xmlns="http://www.w3.org/2000/svg" id="polygon28" points="2.991,11.661,2.991,16.355,3.71401,16.355,3.71401,14.167,5.76301,14.167,8.66801,11.048,3.86701,11.048" fill="#666666"/>
  <polygon xmlns="http://www.w3.org/2000/svg" id="polygon30" points="9.22601,10.844,9.54401,11.214,6.77801,14.167,9.43101,14.167,9.43101,16.355,10.095,16.355,10.095,10.844" fill="#666666"/>
  <path xmlns="http://www.w3.org/2000/svg" id="color_path32" opacity="0.65" enable-background="new    " fill="#0000ee" d="M11.694,14.099L11.694,9.80001c0,-2.845,-2.303,-5.153,-5.15101,-5.153C3.69801,4.647,1.39,6.951,1.39,9.80001l0,9.92101c1.071,1.201,2.979,2.001,5.15301,2.001c3.35901,0,6.08301,-1.902,6.08301,-4.26l0,-1.107C12.626,15.525,12.281,14.754,11.694,14.099z"/>
  <path xmlns="http://www.w3.org/2000/svg" id="path34" opacity="0.5" enable-background="new    " fill="#FFFFFF" d="M8.94301,7.376l1.043,-0.199C9.37401,6.354,8.47301,5.754,7.41101,5.55l0.186,0.786C8.15201,6.532,8.61901,6.903,8.94301,7.376z"/>
  <path xmlns="http://www.w3.org/2000/svg" id="path36" opacity="0.5" enable-background="new    " fill="#FFFFFF" d="M1.948,19.132l0,1.104c0.472001,0.385,1.042,0.71,1.677,0.957001l0,-1.107C2.988,19.841,2.422,19.518,1.948,19.132z"/>
  <path xmlns="http://www.w3.org/2000/svg" id="path38" opacity="0.5" enable-background="new    " fill="#FFFFFF" d="M9.44001,19.338c-0.186,0.089,-0.385001,0.167,-0.585001,0.239c-0.0420001,0.015,-0.0860001,0.03,-0.13,0.043c-0.410001,0.131,-0.844001,0.231,-1.305,0.287c-0.0540001,0.007,-0.11,0.015,-0.164,0.015c-0.233,0.021,-0.468001,0.042,-0.706001,0.042c-0.108,0,-0.223,-0.012,-0.343001,-0.018c-0.873001,-0.042,-1.694,-0.229,-2.397,-0.537l0,-6.098L3.81001,9.80301c0,-1.069,0.616001,-1.984,1.507,-2.435L5.30201,7.33l-0.907001,-1.1C3.181,6.959,2.367,8.281,2.367,9.80101l0,8.653c-0.0360001,-0.035,-0.224,-0.224,-0.349001,-0.384l-0.224,0.499c1.019,1.077,2.769,1.789,4.75701,1.789c1.222,0,2.354,-0.271,3.28001,-0.728l-0.383001,-0.298C9.44001,19.338,9.44001,19.338,9.44001,19.338z"/>
 </g>
</g>
</g></g><path stroke='#8c8c8c' stroke-width='1.988' stroke-linecap='round' stroke-linejoin='round' fill='none' d='M119.727,61.7137L119.727,86.3287' />
<path stroke='#8c8c8c' stroke-width='1.988' stroke-linecap='round' stroke-linejoin='round' fill='none' d='M126.929,61.7137L126.929,86.3287' />
<g partID='206920'><g transform='translate(115.2,32.5067)' ><g xmlns="http://www.w3.org/2000/svg" id="breadboard">
 <rect xmlns="http://www.w3.org/2000/svg" height="0.72" x="3.45101" id="connector0pin" y="25.421" width="2.151" fill="none"/>
 <rect xmlns="http://www.w3.org/2000/svg" height="0.72" x="10.651" id="connector1pin" y="25.421" width="2.154" fill="none"/>
 <g xmlns="http://www.w3.org/2000/svg" stroke="#8C8C8C" x1="4.527" id="connector0leg" stroke-linecap="round" x2="4.527" y1="29.207" fill="none" stroke-width="1.988" y2="53.822"/>
 <g xmlns="http://www.w3.org/2000/svg" stroke="#8C8C8C" x1="11.729" id="connector1leg" stroke-linecap="round" x2="11.729" y1="29.207" fill="none" stroke-width="1.988" y2="53.822"/>
 <rect xmlns="http://www.w3.org/2000/svg" height="9.82801" x="3.45101" y="19.379" width="2.151" fill="#8C8C8C"/>
 <path xmlns="http://www.w3.org/2000/svg" fill="#8C8C8C" d="M12.805,29.207c0,-1.174,-1.065,-2.103,-2.089,-2.992c-0.416001,-0.367,-1.199,-1.001,-1.199,-1.424L9.51701,19.32L7.35601,19.32L7.35601,25.1c0,1.059,0.947001,1.879,1.946,2.748c0.444001,0.377,1.349,1.25,1.349,1.771"/>
 <g xmlns="http://www.w3.org/2000/svg" id="g12">
  <path xmlns="http://www.w3.org/2000/svg" id="color_path14" opacity="0.3" enable-background="new    " fill="#00d9d3" d="M11.694,14.099L11.694,9.80001c0,-2.845,-2.303,-5.153,-5.15101,-5.153C3.69801,4.647,1.39,6.951,1.39,9.80001l0,9.92101c1.071,1.201,2.979,2.001,5.15301,2.001c3.35901,0,6.08301,-1.902,6.08301,-4.26l0,-1.107C12.626,15.525,12.281,14.754,11.694,14.099z"/>
  <path xmlns="http://www.w3.org/2000/svg" id="path16" opacity="0.5" enable-background="new    " fill="#E6E6E6" d="M11.694,14.099L11.694,9.80001c0,-2.845,-2.303,-5.153,-5.15101,-5.153C3.69801,4.647,1.39,6.951,1.39,9.80001l0,9.92101c1.071,1.201,2.979,2.001,5.15301,2.001c3.35901,0,6.08301,-1.902,6.08301,-4.26l0,-1.107C12.626,15.525,12.281,14.754,11.694,14.099z"/>
  <path xmlns="http://www.w3.org/2000/svg" id="path18" opacity="0.9" enable-background="new    " fill="#D1D1D1" d="M11.694,14.099l0,2.257c0,1.991,-2.301,3.608,-5.15101,3.608c-2.845,0,-5.15301,-1.612,-5.15301,-3.608l0,2.257l0,1.109c1.071,1.2,2.979,2,5.15301,2c3.35901,0,6.08301,-1.902,6.08301,-4.26l0,-1.106C12.626,15.525,12.281,14.754,11.694,14.099z"/>
  <path xmlns="http://www.w3.org/2000/svg" id="color_path20" opacity="0.7" enable-background="new    " fill="#00d9d3" d="M11.694,14.099l0,2.257c0,1.991,-2.301,3.608,-5.15101,3.608c-2.845,0,-5.15301,-1.612,-5.15301,-3.608l0,2.257l0,1.109c1.071,1.2,2.979,2,5.15301,2c3.35901,0,6.08301,-1.902,6.08301,-4.26l0,-1.106C12.626,15.525,12.281,14.754,11.694,14.099z"/>
  <path xmlns="http://www.w3.org/2000/svg" id="color_path22" opacity="0.25" enable-background="new    " fill="#00d9d3" d="M11.694,14.099l0,2.257c0,1.991,-2.301,3.608,-5.15101,3.608c-2.845,0,-5.15301,-1.612,-5.15301,-3.608l0,2.257c1.071,1.2,2.979,2.001,5.15301,2.001c3.35901,0,6.08301,-1.903,6.08301,-4.259C12.626,15.525,12.281,14.754,11.694,14.099z"/>
  <ellipse xmlns="http://www.w3.org/2000/svg" cy="16.356" id="ellipse24" opacity="0.25" rx="5.15301" enable-background="new    " ry="3.606" fill="#E6E6E6" cx="6.54301"/>
  <ellipse xmlns="http://www.w3.org/2000/svg" cy="16.356" id="color_ellipse26" opacity="0.25" rx="5.15301" enable-background="new    " ry="3.606" fill="#00d9d3" cx="6.54301"/>
  <polygon xmlns="http://www.w3.org/2000/svg" id="polygon28" points="2.991,11.661,2.991,16.355,3.71401,16.355,3.71401,14.167,5.76301,14.167,8.66801,11.048,3.86701,11.048" fill="#666666"/>
  <polygon xmlns="http://www.w3.org/2000/svg" id="polygon30" points="9.22601,10.844,9.54401,11.214,6.77801,14.167,9.43101,14.167,9.43101,16.355,10.095,16.355,10.095,10.844" fill="#666666"/>
  <path xmlns="http://www.w3.org/2000/svg" id="color_path32" opacity="0.65" enable-background="new    " fill="#00d9d3" d="M11.694,14.099L11.694,9.80001c0,-2.845,-2.303,-5.153,-5.15101,-5.153C3.69801,4.647,1.39,6.951,1.39,9.80001l0,9.92101c1.071,1.201,2.979,2.001,5.15301,2.001c3.35901,0,6.08301,-1.902,6.08301,-4.26l0,-1.107C12.626,15.525,12.281,14.754,11.694,14.099z"/>
  <path xmlns="http://www.w3.org/2000/svg" id="path34" opacity="0.5" enable-background="new    " fill="#FFFFFF" d="M8.94301,7.376l1.043,-0.199C9.37401,6.354,8.47301,5.754,7.41101,5.55l0.186,0.786C8.15201,6.532,8.61901,6.903,8.94301,7.376z"/>
  <path xmlns="http://www.w3.org/2000/svg" id="path36" opacity="0.5" enable-background="new    " fill="#FFFFFF" d="M1.948,19.132l0,1.104c0.472001,0.385,1.042,0.71,1.677,0.957001l0,-1.107C2.988,19.841,2.422,19.518,1.948,19.132z"/>
  <path xmlns="http://www.w3.org/2000/svg" id="path38" opacity="0.5" enable-background="new    " fill="#FFFFFF" d="M9.44001,19.338c-0.186,0.089,-0.385001,0.167,-0.585001,0.239c-0.0420001,0.015,-0.0860001,0.03,-0.13,0.043c-0.410001,0.131,-0.844001,0.231,-1.305,0.287c-0.0540001,0.007,-0.11,0.015,-0.164,0.015c-0.233,0.021,-0.468001,0.042,-0.706001,0.042c-0.108,0,-0.223,-0.012,-0.343001,-0.018c-0.873001,-0.042,-1.694,-0.229,-2.397,-0.537l0,-6.098L3.81001,9.80301c0,-1.069,0.616001,-1.984,1.507,-2.435L5.30201,7.33l-0.907001,-1.1C3.181,6.959,2.367,8.281,2.367,9.80101l0,8.653c-0.0360001,-0.035,-0.224,-0.224,-0.349001,-0.384l-0.224,0.499c1.019,1.077,2.769,1.789,4.75701,1.789c1.222,0,2.354,-0.271,3.28001,-0.728l-0.383001,-0.298C9.44001,19.338,9.44001,19.338,9.44001,19.338z"/>
 </g>
</g>
</g></g><path stroke='#8c8c8c' stroke-width='2.0952' stroke-linecap='round' stroke-linejoin='round' fill='none' d='M127.975,86.3287L126.927,86.3287' />
<path stroke='#8c8c8c' stroke-width='2.0952' stroke-linecap='round' stroke-linejoin='round' fill='none' d='M154.684,86.3287L155.732,86.3287' />
<g partID='206990'><g transform='translate(125.879,82.6963)' ><g xmlns="http://www.w3.org/2000/svg" id="breadboard">
 <rect xmlns="http://www.w3.org/2000/svg" height="0.72" x="0.36" id="connector0pin" y="2.5848" width="0.72" fill="none"/>
 <rect xmlns="http://www.w3.org/2000/svg" height="0.72" x="29.8202" id="connector1pin" y="2.5848" width="0.72" fill="none"/>
 <line xmlns="http://www.w3.org/2000/svg" x1="1.0476" stroke="#8C8C8C" id="connector0leg" stroke-linecap="round" x2="2.0952" y1="3.6324" fill="none" y2="3.6324" stroke-width="2.0952"/>
 <line xmlns="http://www.w3.org/2000/svg" x1="29.8526" stroke="#8C8C8C" id="connector1leg" stroke-linecap="round" x2="28.805" y1="3.6324" fill="none" y2="3.6324" stroke-width="2.0952"/>
 <path xmlns="http://www.w3.org/2000/svg" stroke="#8C8C8C" fill="none" d="M1.0476,3.6324l28.3666,0" stroke-width="2.0952"/>
 <path xmlns="http://www.w3.org/2000/svg" id="body" fill="#D9B477" d="M10.2478,0.49536c-0.36,-0.1656,-0.9792,-0.2952,-1.3752,-0.2952l-1.9872,0c-0.396,0,-0.72,0.324,-0.72,0.72l0,5.35608c0,0.39672,0.324,0.72,0.72,0.72l1.9872,0c0.396,0,1.0152,-0.13608,1.3752,-0.2952l0.072,-0.03528c0.36,-0.1656,0.9792,-0.2952,1.3752,-0.2952l7.1856,0c0.39672,0,1.01448,0.13608,1.37448,0.2952l0.07272,0.03528c0.36,0.1656,0.97776,0.2952,1.3752,0.2952l1.9872,0c0.39744,0,0.72,-0.32328,0.72,-0.72L24.4102,0.92016c0,-0.396,-0.32256,-0.72,-0.72,-0.72l-1.9872,0c-0.39744,0,-1.0152,0.1368,-1.3752,0.2952l-0.07272,0.036c-0.36,0.1656,-0.97776,0.2952,-1.37448,0.2952l-7.1856,0c-0.396,0,-1.0152,-0.1368,-1.3752,-0.2952L10.2478,0.49536z"/>
 <rect xmlns="http://www.w3.org/2000/svg" height="6.79536" x="22.019" id="gold_band" y="0.19368" width="0.70272" fill="#ad9f4e"/>
 <rect xmlns="http://www.w3.org/2000/svg" height="5.5368" x="16.1726" id="band_rd_multiplier" y="0.82656" width="1.8504" fill="#8a3d06"/>
 <rect xmlns="http://www.w3.org/2000/svg" height="5.5368" x="12.4726" id="band_2_nd" y="0.82656" width="1.8504" fill="#c40808"/>
 <path xmlns="http://www.w3.org/2000/svg" id="band_1_st" fill="#c40808" d="M10.6286,0.63936c-0.1152,-0.036,-0.2232,-0.072,-0.3096,-0.1152l-0.072,-0.036c-0.36,-0.16488,-0.9792,-0.2952,-1.3752,-0.2952l-0.0864,0l0,6.79608l0.0864,0c0.396,0,1.0152,-0.13608,1.3752,-0.2952l0.072,-0.03528c0.0864,-0.04464,0.1944,-0.07992,0.3096,-0.1152L10.6286,0.63936z"/>
 <path xmlns="http://www.w3.org/2000/svg" id="Shadow" opacity="0.3" d="M23.711,4.0896L23.711,4.0896c0,0.37944,-0.13032,0.69912,-0.2952,0.69912l-1.9224,0c-0.38016,0,-0.97776,-0.05616,-1.33272,-0.1224L20.088,4.65048c-0.34488,-0.0648,-0.94896,-0.1224,-1.33344,-0.1224L11.808,4.52808c-0.3816,0,-0.9792,0.0576,-1.332,0.1224l-0.072,0.01512c-0.3456,0.06552,-0.9432,0.1224,-1.332,0.1224l-0.3168,0l-1.0008,0l-0.3096,0c-0.3816,0,-0.6984,0.29376,-0.6984,0.64512l0,0.24696L6.7464,5.8392l0,0.1728c0,0.36,0.3168,0.64512,0.6984,0.64512l1.62,0c0.3816,0,0.9792,-0.1224,1.332,-0.26712l0.072,-0.02808c0.3456,-0.14112,0.9504,-0.26496,1.332,-0.26496l6.94656,0c0.37944,0,0.97704,0.12384,1.33416,0.26568l0.07416,0.02808c0.34488,0.14472,0.94464,0.26712,1.33344,0.26712l2.2248,0c0.38088,0,0.69912,-0.2952,0.69912,-0.64512L24.413,5.472L24.413,4.49928L24.413,2.65536C24.1358,2.76336,23.711,3.06576,23.711,4.0896z"/>
 <rect xmlns="http://www.w3.org/2000/svg" height="3.15288" x="22.019" id="ShadowExtra" y="3.48336" opacity="0.4" width="0.70272"/>
 <path xmlns="http://www.w3.org/2000/svg" id="ReflexRight" opacity="0.25" fill="#FFFFFF" d="M19.751,1.08576c0.22968,0,0.49104,-0.1008,0.6624,-0.1728c0.2016,-0.0792,0.57672,-0.144,0.96624,-0.144l1.46088,0c0.22464,0,0.22464,0.2448,0.22464,0.3744c0,0.1296,-0.01512,0.3816,-0.22464,0.3816l-3.06,0c-0.10728,0,-0.2304,-0.1152,-0.2304,-0.22392C19.5566,1.21536,19.6286,1.08576,19.751,1.08576z"/>
 <circle xmlns="http://www.w3.org/2000/svg" cy="1.13616" r="0.432" id="ReflexLeft" opacity="0.35" fill="#FFFFFF" cx="6.99984"/>
 <rect xmlns="http://www.w3.org/2000/svg" height="1.62" x="22.019" id="Reflex_gold" y="0.42336" opacity="0.5" width="0.70272" fill="#FFFF33"/>
 <rect xmlns="http://www.w3.org/2000/svg" height="0.7488" x="22.019" id="Reflex_extra" y="0.78336" opacity="0.5" width="0.70272" fill="#FFFFFF"/>
</g>
</g></g><path stroke='#8c8c8c' stroke-width='2.0952' stroke-linecap='round' stroke-linejoin='round' fill='none' d='M12.7746,158.329L11.727,158.329' />
<path stroke='#8c8c8c' stroke-width='2.0952' stroke-linecap='round' stroke-linejoin='round' fill='none' d='M39.4844,158.329L40.532,158.329' />
<g partID='206960'><g transform='translate(10.6794,154.696)' ><g xmlns="http://www.w3.org/2000/svg" id="breadboard">
 <rect xmlns="http://www.w3.org/2000/svg" height="0.72" x="0.36" id="connector0pin" y="2.5848" width="0.72" fill="none"/>
 <rect xmlns="http://www.w3.org/2000/svg" height="0.72" x="29.8202" id="connector1pin" y="2.5848" width="0.72" fill="none"/>
 <line xmlns="http://www.w3.org/2000/svg" x1="1.0476" stroke="#8C8C8C" id="connector0leg" stroke-linecap="round" x2="2.0952" y1="3.6324" fill="none" y2="3.6324" stroke-width="2.0952"/>
 <line xmlns="http://www.w3.org/2000/svg" x1="29.8526" stroke="#8C8C8C" id="connector1leg" stroke-linecap="round" x2="28.805" y1="3.6324" fill="none" y2="3.6324" stroke-width="2.0952"/>
 <path xmlns="http://www.w3.org/2000/svg" stroke="#8C8C8C" fill="none" d="M1.0476,3.6324l28.3666,0" stroke-width="2.0952"/>
 <path xmlns="http://www.w3.org/2000/svg" id="body" fill="#D9B477" d="M10.2478,0.49536c-0.36,-0.1656,-0.9792,-0.2952,-1.3752,-0.2952l-1.9872,0c-0.396,0,-0.72,0.324,-0.72,0.72l0,5.35608c0,0.39672,0.324,0.72,0.72,0.72l1.9872,0c0.396,0,1.0152,-0.13608,1.3752,-0.2952l0.072,-0.03528c0.36,-0.1656,0.9792,-0.2952,1.3752,-0.2952l7.1856,0c0.39672,0,1.01448,0.13608,1.37448,0.2952l0.07272,0.03528c0.36,0.1656,0.97776,0.2952,1.3752,0.2952l1.9872,0c0.39744,0,0.72,-0.32328,0.72,-0.72L24.4102,0.92016c0,-0.396,-0.32256,-0.72,-0.72,-0.72l-1.9872,0c-0.39744,0,-1.0152,0.1368,-1.3752,0.2952l-0.07272,0.036c-0.36,0.1656,-0.97776,0.2952,-1.37448,0.2952l-7.1856,0c-0.396,0,-1.0152,-0.1368,-1.3752,-0.2952L10.2478,0.49536z"/>
 <rect xmlns="http://www.w3.org/2000/svg" height="6.79536" x="22.019" id="gold_band" y="0.19368" width="0.70272" fill="#ad9f4e"/>
 <rect xmlns="http://www.w3.org/2000/svg" height="5.5368" x="16.1726" id="band_rd_multiplier" y="0.82656" width="1.8504" fill="#8a3d06"/>
 <rect xmlns="http://www.w3.org/2000/svg" height="5.5368" x="12.4726" id="band_2_nd" y="0.82656" width="1.8504" fill="#8210d2"/>
 <path xmlns="http://www.w3.org/2000/svg" id="band_1_st" fill="#ffd500" d="M10.6286,0.63936c-0.1152,-0.036,-0.2232,-0.072,-0.3096,-0.1152l-0.072,-0.036c-0.36,-0.16488,-0.9792,-0.2952,-1.3752,-0.2952l-0.0864,0l0,6.79608l0.0864,0c0.396,0,1.0152,-0.13608,1.3752,-0.2952l0.072,-0.03528c0.0864,-0.04464,0.1944,-0.07992,0.3096,-0.1152L10.6286,0.63936z"/>
 <path xmlns="http://www.w3.org/2000/svg" id="Shadow" opacity="0.3" d="M23.711,4.0896L23.711,4.0896c0,0.37944,-0.13032,0.69912,-0.2952,0.69912l-1.9224,0c-0.38016,0,-0.97776,-0.05616,-1.33272,-0.1224L20.088,4.65048c-0.34488,-0.0648,-0.94896,-0.1224,-1.33344,-0.1224L11.808,4.52808c-0.3816,0,-0.9792,0.0576,-1.332,0.1224l-0.072,0.01512c-0.3456,0.06552,-0.9432,0.1224,-1.332,0.1224l-0.3168,0l-1.0008,0l-0.3096,0c-0.3816,0,-0.6984,0.29376,-0.6984,0.64512l0,0.24696L6.7464,5.8392l0,0.1728c0,0.36,0.3168,0.64512,0.6984,0.64512l1.62,0c0.3816,0,0.9792,-0.1224,1.332,-0.26712l0.072,-0.02808c0.3456,-0.14112,0.9504,-0.26496,1.332,-0.26496l6.94656,0c0.37944,0,0.97704,0.12384,1.33416,0.26568l0.07416,0.02808c0.34488,0.14472,0.94464,0.26712,1.33344,0.26712l2.2248,0c0.38088,0,0.69912,-0.2952,0.69912,-0.64512L24.413,5.472L24.413,4.49928L24.413,2.65536C24.1358,2.76336,23.711,3.06576,23.711,4.0896z"/>
 <rect xmlns="http://www.w3.org/2000/svg" height="3.15288" x="22.019" id="ShadowExtra" y="3.48336" opacity="0.4" width="0.70272"/>
 <path xmlns="http://www.w3.org/2000/svg" id="ReflexRight" opacity="0.25" fill="#FFFFFF" d="M19.751,1.08576c0.22968,0,0.49104,-0.1008,0.6624,-0.1728c0.2016,-0.0792,0.57672,-0.144,0.96624,-0.144l1.46088,0c0.22464,0,0.22464,0.2448,0.22464,0.3744c0,0.1296,-0.01512,0.3816,-0.22464,0.3816l-3.06,0c-0.10728,0,-0.2304,-0.1152,-0.2304,-0.22392C19.5566,1.21536,19.6286,1.08576,19.751,1.08576z"/>
 <circle xmlns="http://www.w3.org/2000/svg" cy="1.13616" r="0.432" id="ReflexLeft" opacity="0.35" fill="#FFFFFF" cx="6.99984"/>
 <rect xmlns="http://www.w3.org/2000/svg" height="1.62" x="22.019" id="Reflex_gold" y="0.42336" opacity="0.5" width="0.70272" fill="#FFFF33"/>
 <rect xmlns="http://www.w3.org/2000/svg" height="0.7488" x="22.019" id="Reflex_extra" y="0.78336" opacity="0.5" width="0.70272" fill="#FFFFFF"/>
</g>
</g></g><g partID='196050'><line stroke-linecap='round' stroke='#8c0000' x1='98.0616' y1='107.954' x2='119.727' y2='107.929' stroke-width='3.2' /><line stroke-linecap='round' stroke='#cc1414' x1='98.0616' y1='107.954' x2='119.727' y2='107.929' stroke-width='1.6' /></g><g partID='195840'><line stroke-linecap='round' stroke='#8c0000' x1='83.7241' y1='172.729' x2='98.0616' y2='172.829' stroke-width='3.2' /><line stroke-linecap='round' stroke='#cc1414' x1='83.7241' y1='172.729' x2='98.0616' y2='172.829' stroke-width='1.6' /></g><g partID='195980'><line stroke-linecap='round' stroke='#8c0000' x1='98.0616' y1='172.829' x2='98.0616' y2='107.954' stroke-width='3.2' /><line stroke-linecap='round' stroke='#cc1414' x1='98.0616' y1='172.829' x2='98.0616' y2='107.954' stroke-width='1.6' /></g><g partID='196260'><line stroke-linecap='round' stroke='#000000' x1='91.027' y1='100.659' x2='126.982' y2='100.659' stroke-width='3.2' /><line stroke-linecap='round' stroke='#404040' x1='91.027' y1='100.659' x2='126.982' y2='100.659' stroke-width='1.6' /></g><g partID='196330'><line stroke-linecap='round' stroke='#000000' x1='126.982' y1='100.659' x2='126.927' y2='107.929' stroke-width='3.2' /><line stroke-linecap='round' stroke='#404040' x1='126.982' y1='100.659' x2='126.927' y2='107.929' stroke-width='1.6' /></g><g partID='196190'><line stroke-linecap='round' stroke='#000000' x1='91.027' y1='179.863' x2='91.027' y2='100.659' stroke-width='3.2' /><line stroke-linecap='round' stroke='#404040' x1='91.027' y1='179.863' x2='91.027' y2='100.659' stroke-width='1.6' /></g><g partID='195910'><line stroke-linecap='round' stroke='#000000' x1='76.5256' y1='172.729' x2='76.4366' y2='179.863' stroke-width='3.2' /><line stroke-linecap='round' stroke='#404040' x1='76.5256' y1='172.729' x2='76.4366' y2='179.863' stroke-width='1.6' /></g><g partID='196120'><line stroke-linecap='round' stroke='#000000' x1='76.4366' y1='179.863' x2='91.027' y2='179.863' stroke-width='3.2' /><line stroke-linecap='round' stroke='#404040' x1='76.4366' y1='179.863' x2='91.027' y2='179.863' stroke-width='1.6' /></g><g partID='197270'><line stroke-linecap='round' stroke='#666666' x1='119.727' y1='172.729' x2='112.527' y2='187.129' stroke-width='3.2' /><line stroke-linecap='round' stroke='#999999' x1='119.727' y1='172.729' x2='112.527' y2='187.129' stroke-width='1.6' /></g><g partID='197340'><line stroke-linecap='round' stroke='#666666' x1='134.127' y1='187.129' x2='126.927' y2='172.729' stroke-width='3.2' /><line stroke-linecap='round' stroke='#999999' x1='134.127' y1='187.129' x2='126.927' y2='172.729' stroke-width='1.6' /></g><g partID='200200'><line stroke-linecap='round' stroke='#000000' x1='76.4366' y1='187.158' x2='62.1068' y2='187.158' stroke-width='3.2' /><line stroke-linecap='round' stroke='#404040' x1='76.4366' y1='187.158' x2='62.1068' y2='187.158' stroke-width='1.6' /></g><g partID='198090'><line stroke-linecap='round' stroke='#000000' x1='76.4366' y1='179.863' x2='76.4366' y2='187.158' stroke-width='3.2' /><line stroke-linecap='round' stroke='#404040' x1='76.4366' y1='179.863' x2='76.4366' y2='187.158' stroke-width='1.6' /></g><g partID='197980'><line stroke-linecap='round' stroke='#000000' x1='76.5256' y1='172.729' x2='76.4366' y2='179.863' stroke-width='3.2' /><line stroke-linecap='round' stroke='#404040' x1='76.5256' y1='172.729' x2='76.4366' y2='179.863' stroke-width='1.6' /></g><g partID='200310'><line stroke-linecap='round' stroke='#000000' x1='62.1068' y1='187.158' x2='62.1068' y2='230.408' stroke-width='3.2' /><line stroke-linecap='round' stroke='#404040' x1='62.1068' y1='187.158' x2='62.1068' y2='230.408' stroke-width='1.6' /></g><g partID='200420'><line stroke-linecap='round' stroke='#000000' x1='62.1068' y1='230.408' x2='87.8597' y2='232.901' stroke-width='3.2' /><line stroke-linecap='round' stroke='#404040' x1='62.1068' y1='230.408' x2='87.8597' y2='232.901' stroke-width='1.6' /></g><g partID='199800'><line stroke-linecap='round' stroke='#8c0000' x1='93.0642' y1='191.612' x2='90.9694' y2='194.286' stroke-width='3.2' /><line stroke-linecap='round' stroke='#cc1414' x1='93.0642' y1='191.612' x2='90.9694' y2='194.286' stroke-width='1.6' /></g><g partID='199870'><line stroke-linecap='round' stroke='#8c0000' x1='90.9694' y1='194.286' x2='69.402' y2='194.454' stroke-width='3.2' /><line stroke-linecap='round' stroke='#cc1414' x1='90.9694' y1='194.286' x2='69.402' y2='194.454' stroke-width='1.6' /></g><g partID='200010'><line stroke-linecap='round' stroke='#8c0000' x1='69.402' y1='194.454' x2='69.327' y2='172.729' stroke-width='3.2' /><line stroke-linecap='round' stroke='#cc1414' x1='69.402' y1='194.454' x2='69.327' y2='172.729' stroke-width='1.6' /></g><g partID='200530'><line stroke-linecap='round' stroke='#000000' x1='90.927' y1='230.329' x2='87.8597' y2='232.901' stroke-width='3.2' /><line stroke-linecap='round' stroke='#404040' x1='90.927' y1='230.329' x2='87.8597' y2='232.901' stroke-width='1.6' /></g><g partID='200680'><line stroke-linecap='round' stroke='#666666' x1='73.4172' y1='211.259' x2='71.28' y2='210.682' stroke-width='3.2' /><line stroke-linecap='round' stroke='#999999' x1='73.4172' y1='211.259' x2='71.28' y2='210.682' stroke-width='1.6' /></g><g partID='200710'><line stroke-linecap='round' stroke='#666666' x1='107.507' y1='213.254' x2='110.616' y2='213.933' stroke-width='3.2' /><line stroke-linecap='round' stroke='#999999' x1='107.507' y1='213.254' x2='110.616' y2='213.933' stroke-width='1.6' /></g><g partID='201030'><line stroke-linecap='round' stroke='#666666' x1='105.357' y1='244.738' x2='90.927' y2='244.729' stroke-width='3.2' /><line stroke-linecap='round' stroke='#999999' x1='105.357' y1='244.738' x2='90.927' y2='244.729' stroke-width='1.6' /></g><g partID='200810'><line stroke-linecap='round' stroke='#666666' x1='107.507' y1='213.254' x2='105.357' y2='244.738' stroke-width='3.2' /><line stroke-linecap='round' stroke='#999999' x1='107.507' y1='213.254' x2='105.357' y2='244.738' stroke-width='1.6' /></g><g partID='201140'><line stroke-linecap='round' stroke='#666666' x1='69.402' y1='244.738' x2='83.727' y2='244.729' stroke-width='3.2' /><line stroke-linecap='round' stroke='#999999' x1='69.402' y1='244.738' x2='83.727' y2='244.729' stroke-width='1.6' /></g><g partID='200920'><line stroke-linecap='round' stroke='#666666' x1='71.28' y1='210.682' x2='69.402' y2='244.738' stroke-width='3.2' /><line stroke-linecap='round' stroke='#999999' x1='71.28' y1='210.682' x2='69.402' y2='244.738' stroke-width='1.6' /></g><g partID='203370'><line stroke-linecap='round' stroke='#8c0000' x1='69.327' y1='172.729' x2='69.327' y2='115.129' stroke-width='3.2' /><line stroke-linecap='round' stroke='#cc1414' x1='69.327' y1='172.729' x2='69.327' y2='115.129' stroke-width='1.6' /></g><g partID='202800'><line stroke-linecap='round' stroke='#000000' x1='76.527' y1='115.129' x2='76.5256' y2='172.729' stroke-width='3.2' /><line stroke-linecap='round' stroke='#404040' x1='76.527' y1='115.129' x2='76.5256' y2='172.729' stroke-width='1.6' /></g><g partID='203390'><line stroke-linecap='round' stroke='#8c0000' x1='69.327' y1='50.3287' x2='69.327' y2='115.129' stroke-width='3.2' /><line stroke-linecap='round' stroke='#cc1414' x1='69.327' y1='50.3287' x2='69.327' y2='115.129' stroke-width='1.6' /></g><g partID='202830'><line stroke-linecap='round' stroke='#000000' x1='76.527' y1='115.129' x2='76.527' y2='50.3287' stroke-width='3.2' /><line stroke-linecap='round' stroke='#404040' x1='76.527' y1='115.129' x2='76.527' y2='50.3287' stroke-width='1.6' /></g><g partID='207010'><line stroke-linecap='round' stroke='#8c0000' x1='11.727' y1='158.329' x2='11.729' y2='158.329' stroke-width='3.2' /><line stroke-linecap='round' stroke='#cc1414' x1='11.727' y1='158.329' x2='11.729' y2='158.329' stroke-width='1.6' /></g><g partID='207080'><line stroke-linecap='round' stroke='#8c0000' x1='40.532' y1='158.329' x2='40.4818' y2='172.829' stroke-width='3.2' /><line stroke-linecap='round' stroke='#cc1414' x1='40.532' y1='158.329' x2='40.4818' y2='172.829' stroke-width='1.6' /></g><g partID='207230'><line stroke-linecap='round' stroke='#8c0000' x1='40.4818' y1='172.829' x2='69.327' y2='172.729' stroke-width='3.2' /><line stroke-linecap='round' stroke='#cc1414' x1='40.4818' y1='172.829' x2='69.327' y2='172.729' stroke-width='1.6' /></g><g partID='207380'><line stroke-linecap='round' stroke='#8c0000' x1='126.927' y1='86.3287' x2='126.929' y2='86.3287' stroke-width='3.2' /><line stroke-linecap='round' stroke='#cc1414' x1='126.927' y1='86.3287' x2='126.929' y2='86.3287' stroke-width='1.6' /></g><g partID='207880'><line stroke-linecap='round' stroke='#000000' x1='119.687' y1='100.659' x2='126.982' y2='100.659' stroke-width='3.2' /><line stroke-linecap='round' stroke='#404040' x1='119.687' y1='100.659' x2='126.982' y2='100.659' stroke-width='1.6' /></g><g partID='207710'><line stroke-linecap='round' stroke='#000000' x1='126.982' y1='100.659' x2='126.927' y2='107.929' stroke-width='3.2' /><line stroke-linecap='round' stroke='#404040' x1='126.982' y1='100.659' x2='126.927' y2='107.929' stroke-width='1.6' /></g><g partID='207450'><line stroke-linecap='round' stroke='#000000' x1='119.727' y1='86.3287' x2='119.687' y2='100.659' stroke-width='3.2' /><line stroke-linecap='round' stroke='#404040' x1='119.727' y1='86.3287' x2='119.687' y2='100.659' stroke-width='1.6' /></g><g partID='208650'><line stroke-linecap='round' stroke='#000000' x1='4.52701' y1='187.019' x2='4.52701' y2='158.329' stroke-width='3.2' /><line stroke-linecap='round' stroke='#404040' x1='4.52701' y1='187.019' x2='4.52701' y2='158.329' stroke-width='1.6' /></g><g partID='208440'><line stroke-linecap='round' stroke='#000000' x1='62.105' y1='187.019' x2='4.52701' y2='187.019' stroke-width='3.2' /><line stroke-linecap='round' stroke='#404040' x1='62.105' y1='187.019' x2='4.52701' y2='187.019' stroke-width='1.6' /></g><g partID='207480'><line stroke-linecap='round' stroke='#000000' x1='76.5256' y1='172.729' x2='76.5704' y2='187.019' stroke-width='3.2' /><line stroke-linecap='round' stroke='#404040' x1='76.5256' y1='172.729' x2='76.5704' y2='187.019' stroke-width='1.6' /></g><g partID='208230'><line stroke-linecap='round' stroke='#000000' x1='76.5704' y1='187.019' x2='62.105' y2='187.019' stroke-width='3.2' /><line stroke-linecap='round' stroke='#404040' x1='76.5704' y1='187.019' x2='62.105' y2='187.019' stroke-width='1.6' /></g><g partID='209010'><line stroke-linecap='round' stroke='#8c0000' x1='155.705' y1='115.26' x2='119.683' y2='115.26' stroke-width='3.2' /><line stroke-linecap='round' stroke='#cc1414' x1='155.705' y1='115.26' x2='119.683' y2='115.26' stroke-width='1.6' /></g><g partID='208920'><line stroke-linecap='round' stroke='#8c0000' x1='119.683' y1='115.26' x2='119.727' y2='107.929' stroke-width='3.2' /><line stroke-linecap='round' stroke='#cc1414' x1='119.683' y1='115.26' x2='119.727' y2='107.929' stroke-width='1.6' /></g><g partID='207540'><line stroke-linecap='round' stroke='#8c0000' x1='155.732' y1='86.3287' x2='155.705' y2='115.26' stroke-width='3.2' /><line stroke-linecap='round' stroke='#cc1414' x1='155.732' y1='86.3287' x2='155.705' y2='115.26' stroke-width='1.6' /></g></svg>