G04 MADE WITH FRITZING*
G04 WWW.FRITZING.ORG*
G04 DOUBLE SIDED*
G04 HOLES PLATED*
G04 CONTOUR ON CENTER OF CONTOUR VECTOR*
%ASAXBY*%
%FSLAX23Y23*%
%MOIN*%
%OFA0B0*%
%SFA1.0B1.0*%
%ADD10C,0.111000*%
%ADD11C,0.082000*%
%ADD12C,0.080000*%
%ADD13C,0.075000*%
%ADD14C,0.062992*%
%ADD15C,0.039370*%
%ADD16R,0.082000X0.082000*%
%ADD17R,0.080000X0.080000*%
%ADD18R,0.075000X0.075000*%
%ADD19R,0.062992X0.062992*%
%ADD20C,0.024000*%
%ADD21C,0.016000*%
%LNCOPPER0*%
G90*
G70*
G54D10*
X479Y467D03*
X479Y984D03*
G54D11*
X1044Y565D03*
X1044Y665D03*
X1044Y765D03*
G54D12*
X744Y165D03*
X607Y165D03*
G54D11*
X444Y365D03*
X444Y67D03*
X344Y365D03*
X344Y67D03*
X244Y365D03*
X244Y67D03*
X144Y365D03*
X144Y67D03*
G54D13*
X1244Y265D03*
X1444Y265D03*
X1244Y765D03*
X1444Y765D03*
G54D14*
X944Y267D03*
X944Y365D03*
X944Y67D03*
X944Y165D03*
G54D13*
X744Y965D03*
X1144Y965D03*
X744Y365D03*
X744Y765D03*
G54D15*
X744Y670D03*
X1272Y910D03*
G54D16*
X1044Y565D03*
G54D17*
X744Y165D03*
G54D16*
X444Y366D03*
X344Y366D03*
X244Y366D03*
X144Y366D03*
G54D18*
X1244Y265D03*
X1244Y765D03*
G54D19*
X944Y267D03*
X944Y67D03*
G54D20*
X443Y166D02*
X444Y99D01*
D02*
X243Y166D02*
X443Y166D01*
D02*
X244Y99D02*
X243Y166D01*
D02*
X746Y66D02*
X745Y134D01*
D02*
X477Y67D02*
X746Y66D01*
D02*
X244Y564D02*
X244Y397D01*
D02*
X1012Y565D02*
X244Y564D01*
D02*
X1445Y564D02*
X1077Y565D01*
D02*
X1444Y736D02*
X1445Y564D01*
G54D21*
D02*
X760Y948D02*
X856Y846D01*
X856Y846D02*
X1480Y838D01*
X1480Y838D02*
X1504Y814D01*
X1504Y814D02*
X1480Y526D01*
X1480Y526D02*
X888Y494D01*
X888Y494D02*
X888Y126D01*
X888Y126D02*
X930Y82D01*
D02*
X731Y670D02*
X664Y670D01*
X664Y670D02*
X688Y1006D01*
D02*
X688Y1006D02*
X696Y1022D01*
D02*
X696Y1022D02*
X824Y1022D01*
D02*
X824Y1022D02*
X1096Y910D01*
X1096Y910D02*
X1259Y910D01*
D02*
X763Y751D02*
X808Y718D01*
X808Y718D02*
X808Y606D01*
X808Y606D02*
X1032Y606D01*
X1032Y606D02*
X1037Y590D01*
G04 End of Copper0*
M02*