G04 MADE WITH FRITZING*
G04 WWW.FRITZING.ORG*
G04 DOUBLE SIDED*
G04 HOLES PLATED*
G04 CONTOUR ON CENTER OF CONTOUR VECTOR*
%ASAXBY*%
%FSLAX23Y23*%
%MOIN*%
%OFA0B0*%
%SFA1.0B1.0*%
%ADD10C,0.121000*%
%ADD11C,0.092000*%
%ADD12C,0.090000*%
%ADD13C,0.085000*%
%ADD14C,0.072992*%
%ADD15C,0.049370*%
%ADD16R,0.128110X0.045433*%
%ADD17R,0.092000X0.092000*%
%ADD18R,0.090000X0.090000*%
%ADD19R,0.085000X0.085000*%
%ADD20R,0.072992X0.072992*%
%ADD21R,0.060000X0.035000*%
%LNMASK1*%
G90*
G70*
G54D10*
X479Y467D03*
X479Y984D03*
X479Y467D03*
X479Y984D03*
G54D11*
X1044Y565D03*
X1044Y665D03*
X1044Y765D03*
G54D12*
X744Y165D03*
X607Y165D03*
G54D11*
X444Y365D03*
X444Y67D03*
X344Y365D03*
X344Y67D03*
X244Y365D03*
X244Y67D03*
X144Y365D03*
X144Y67D03*
G54D13*
X1244Y265D03*
X1444Y265D03*
X1244Y765D03*
X1444Y765D03*
G54D14*
X944Y267D03*
X944Y365D03*
X944Y67D03*
X944Y165D03*
G54D13*
X744Y965D03*
X1144Y965D03*
X744Y365D03*
X744Y765D03*
G54D15*
X744Y670D03*
X1272Y910D03*
G54D16*
X644Y765D03*
X644Y863D03*
X644Y686D03*
X644Y588D03*
G54D17*
X1044Y565D03*
G54D18*
X744Y165D03*
G54D17*
X444Y366D03*
X344Y366D03*
X244Y366D03*
X144Y366D03*
G54D19*
X1244Y265D03*
X1244Y765D03*
G54D20*
X944Y267D03*
X944Y67D03*
G54D21*
X1544Y65D03*
X1544Y33D03*
G04 End of Mask1*
M02*