; NON-PLATED HOLES START AT T1
; THROUGH (PLATED) HOLES START AT T100
M48
INCH
T100C0.031497
T101C0.091000
T102C0.035000
T103C0.042000
T104C0.040000
T105C0.015748
%
T100
X009444Y002665
X009444Y001650
X009444Y000665
X009444Y003650
T101
X004786Y009841
X004786Y004671
T102
X007444Y007650
X014444Y002650
X011444Y009650
X014444Y007650
X012444Y002650
X012444Y007650
X007444Y003650
X007444Y009650
T103
X001444Y003650
X010444Y005650
X002444Y003650
X004444Y003650
X010444Y006650
X004444Y000670
X002444Y000670
X010444Y007650
X001444Y000670
X003444Y000670
X003444Y003650
T104
X007444Y001650
X006066Y001650
T105
X012720Y009103
X007439Y006703
T00
M30
